<svg width="511" height="511" viewBox="0 0 511 511" fill="none" xmlns="http://www.w3.org/2000/svg">
<g opacity="0.1">
<path d="M402.054 173.399C407.716 182.607 410.551 193.251 399.109 200.158C387.729 207.023 379.489 199.655 373.83 190.44L359.548 167.209L403.56 140.636L426.587 178.086L414.956 185.103L401.551 163.297L397.404 165.799L402.054 173.399ZM383.173 182.102C384.834 184.811 386.739 186.36 389.565 184.644C392.393 182.94 391.938 180.516 390.277 177.807L386.821 172.187L379.72 176.474L383.173 182.102Z" stroke="white" stroke-width="1.2" stroke-miterlimit="10"/>
<path d="M386.427 212.371L437.575 205.581L444.891 257.017L393.736 263.802L391.17 245.768L427.561 240.939L425.377 225.573L388.986 230.401L386.427 212.371Z" stroke="white" stroke-width="1.2" stroke-miterlimit="10"/>
<path d="M436.433 311.437C434.977 316.936 432.516 322.152 429.264 326.347L414.56 322.362C417.281 319.907 420.071 315.426 421.323 310.698C423.263 303.374 421.686 295.502 412.76 293.084C404.909 290.961 399.807 296.937 397.944 303.961C396.488 309.461 396.417 314.918 397.97 318.282L382.913 314.208C382.169 308.94 382.566 303.402 384.061 297.753C388.071 282.645 399.363 270.077 417.562 274.999C436.568 280.063 440.317 296.782 436.433 311.437Z" stroke="white" stroke-width="1.2" stroke-miterlimit="10"/>
<path d="M381.895 394.512C372.792 403.037 364.805 404.947 358.604 398.393C354.944 394.53 353.972 390.277 356.697 384.889C350.7 387.967 345.15 387.393 340.58 382.565C332.502 374.028 338.371 364.382 346.842 356.449L366.496 338.046L402.069 375.626L381.895 394.512ZM361.967 371.044L367.617 365.757L361.822 359.638L356.172 364.925C353.635 367.295 353.33 369.614 355.207 371.597C357.092 373.584 359.43 373.414 361.967 371.044ZM375.106 383.659L380.125 378.964L374.887 373.435L369.823 378.075C367.574 380.181 367.699 382.491 369.124 384.002C370.596 385.55 372.857 385.765 375.106 383.659Z" fill="white"/>
<path d="M322.23 430.225C309.012 435.14 297.284 434.632 292.097 421.071C286.936 407.582 295.394 399.555 308.612 394.64L314.183 392.568L309.364 379.974L326.519 373.593L344.951 421.779L322.23 430.225ZM317.375 417.094L322.796 415.079L319.183 405.649L313.762 407.663C309.825 409.13 307.834 411.442 309.091 414.75C310.39 418.12 313.442 418.553 317.375 417.094Z" fill="white"/>
<path d="M235.608 441.385L235.562 428.018L259.328 428.131L259.306 422.18L238.404 422.075L238.36 409.59L259.267 409.688L259.243 403.592L235.006 403.474L234.957 389.962L277.559 390.164L277.739 441.582L235.608 441.385Z" fill="white"/>
<path d="M150.194 410.644L171.705 364.07L187.966 371.613L178.136 392.905L191.918 384.921L200.663 388.975L203.475 404.742L213.343 383.386L229.604 390.929L208.093 437.502L193.278 430.632L188.586 403.738L165.019 417.53L150.194 410.644Z" fill="white"/>
<path d="M170.358 362.156L147.287 362.512C149.031 369.074 147.816 375.143 142.038 379.783C131.39 388.324 120.511 382.263 112.825 372.814L96.5041 352.748L136.562 320.612L148.109 334.814L136.267 344.32L138.229 346.724L157.307 346.111L170.358 362.156ZM130.487 357.325L126.371 352.262L118.816 358.323L122.932 363.387C125.54 366.595 128.391 366.96 130.622 365.169C132.865 363.375 133.095 360.534 130.487 357.325Z" fill="white"/>
<path d="M125.313 294.639L73.9176 299.516L68.5319 247.865L119.928 242.988L121.812 261.098L85.2468 264.573L86.8518 280.007L123.417 276.532L125.313 294.639Z" fill="white"/>
<path d="M83.9917 181.195L96.8721 185.093L90.13 207.709L95.8682 209.444L101.804 189.547L113.834 193.194L107.899 213.091L113.777 214.868L120.657 191.797L133.684 195.741L121.592 236.287L72.0527 221.275L83.9917 181.195Z" fill="white"/>
<path d="M111.392 138.435C120.2 127.493 130.509 121.998 141.89 131.103C153.209 140.163 150.06 151.388 141.251 162.33L137.538 166.938L148.107 175.392L136.675 189.591L96.2395 157.237L111.392 138.435ZM122.272 147.337L118.655 151.828L126.569 158.157L130.182 153.673C132.806 150.416 133.33 147.4 130.558 145.178C127.731 142.915 124.896 144.08 122.272 147.337Z" fill="white"/>
<path d="M168.346 91.7218C179.263 85.6409 187.492 85.7056 191.935 93.5304C194.558 98.1527 194.482 102.498 190.528 107.072C197.101 105.521 202.367 107.405 205.647 113.181C211.441 123.383 203.399 131.324 193.246 136.985L169.679 150.107L144.159 105.183L168.346 91.7218ZM172.334 103.864L166.326 107.214L170.082 113.819L176.132 110.532C178.826 109.028 179.267 106.758 178.246 104.963C177.184 103.107 175.028 102.359 172.334 103.864ZM182.063 119.226L175.291 122.995L179.448 130.31L186.221 126.541C189.265 124.847 190.119 122.682 188.769 120.305C187.425 117.932 185.103 117.539 182.063 119.226Z" fill="white"/>
<path d="M267.698 121.606L266.336 70.1944L284.688 69.8687L286.049 121.281L267.698 121.606ZM215.979 122.529L214.617 71.1169L232.968 70.7912L233.363 85.478L239.324 85.3718C252.114 85.1444 263.425 88.8345 263.802 103.301C264.183 117.693 253.085 121.862 240.295 122.09L215.979 122.529ZM233.958 108.247L239.762 108.145C243.021 108.086 245.767 106.792 245.683 103.626C245.594 100.468 242.783 99.2654 239.531 99.329L233.734 99.4345L233.958 108.247Z" fill="white"/>
<path d="M286.525 121.874L315.155 106.253L309.463 75.9901L328.795 85.2387L330.565 100.787L343.677 92.3585L363.009 101.607L335.936 116.186L341.797 148.315L322.465 139.067L320.413 122.084L305.864 131.127L286.525 121.874Z" fill="white"/>
</g>
</svg>
