<svg width="300" height="65" viewBox="0 0 300 65" fill="none" xmlns="http://www.w3.org/2000/svg">
<path d="M86.5419 21.1725H84.1521V2.48882H73.5722V21.1725H71.1875V0.211914H86.5419V21.1725Z" fill="white"/>
<path d="M99.5202 13.5958L96.0329 14.0946C94.9559 14.2507 94.1507 14.5278 93.602 14.9207C93.0584 15.3136 92.7866 16.0138 92.7866 17.0162C92.7866 17.7416 93.043 18.3411 93.5456 18.8096C94.043 19.273 94.7149 19.5047 95.5559 19.5047C96.6996 19.5047 97.6483 19.0866 98.397 18.2554C99.1509 17.4243 99.5202 16.3664 99.5202 15.092V13.5958ZM101.838 21.1721H99.5202V18.8347H99.4586C98.4535 20.6331 96.9714 21.5247 95.0123 21.5247C93.5764 21.5247 92.4481 21.1318 91.6327 20.3409C90.8173 19.5551 90.4121 18.5073 90.4121 17.2026C90.4121 14.4069 92.0019 12.7798 95.1867 12.3214L99.5253 11.6967C99.5253 9.14782 98.5253 7.87336 96.5457 7.87336C94.8072 7.87336 93.2276 8.48792 91.8276 9.71705V7.2588C93.2533 6.32688 94.8892 5.8584 96.7354 5.8584C100.136 5.8584 101.838 7.72224 101.838 11.4449V21.1721Z" fill="white"/>
<path d="M108.513 12.9663V15.0568C108.513 16.296 108.903 17.3489 109.672 18.2103C110.452 19.0767 111.436 19.5049 112.636 19.5049C114.042 19.5049 115.139 18.9457 115.934 17.8325C116.729 16.7242 117.124 15.1777 117.124 13.2031C117.124 11.5357 116.754 10.231 116.011 9.28399C115.267 8.33695 114.262 7.86848 112.98 7.86848C111.636 7.86848 110.559 8.35207 109.739 9.31925C108.923 10.2915 108.513 11.5105 108.513 12.9663ZM108.57 19.0112H108.518V28.0584H106.2V6.20613H108.518V8.83566H108.57C109.708 6.85092 111.375 5.85352 113.57 5.85352C115.431 5.85352 116.888 6.52853 117.934 7.86344C118.98 9.20339 119.503 10.9967 119.503 13.2484C119.503 15.752 118.913 17.7569 117.734 19.2631C116.56 20.7693 114.949 21.5148 112.903 21.5148C111.031 21.5198 109.59 20.6836 108.57 19.0112Z" fill="white"/>
<path d="M131.749 8.24669H127.416V21.1727H125.103V8.24669H120.754V6.20654H131.749V8.24669Z" fill="white"/>
<path d="M146.534 21.1727H144.216V14.3722H136.846V21.1727H134.528V6.20654H136.846V12.3421H144.216V6.20654H146.534V21.1727Z" fill="white"/>
<path d="M160.461 12.2561C160.451 10.8708 160.128 9.79276 159.497 9.02204C158.861 8.25132 157.974 7.86848 156.851 7.86848C155.758 7.86848 154.83 8.27651 154.066 9.08249C153.307 9.89351 152.83 10.9463 152.656 12.2561H160.461ZM162.835 14.2912H152.625C152.666 15.9535 153.097 17.2431 153.922 18.1498C154.753 19.0565 155.892 19.5099 157.338 19.5099C158.969 19.5099 160.461 18.9508 161.825 17.8375V20.0942C160.553 21.0463 158.876 21.5198 156.784 21.5198C154.743 21.5198 153.138 20.8448 151.968 19.4847C150.804 18.1246 150.225 16.2104 150.225 13.7471C150.225 11.4148 150.866 9.52074 152.132 8.05486C153.409 6.58898 154.989 5.85352 156.881 5.85352C158.769 5.85352 160.235 6.48823 161.271 7.75765C162.307 9.02708 162.825 10.7801 162.825 13.0318V14.2912H162.835Z" fill="white"/>
<path d="M168.653 12.9663V15.0568C168.653 16.296 169.043 17.3489 169.817 18.2103C170.597 19.0767 171.581 19.5049 172.776 19.5049C174.181 19.5049 175.274 18.9457 176.074 17.8325C176.869 16.7242 177.269 15.1777 177.269 13.2031C177.269 11.5357 176.894 10.231 176.151 9.28399C175.407 8.33695 174.402 7.86848 173.13 7.86848C171.786 7.86848 170.704 8.35207 169.884 9.31925C169.068 10.2915 168.653 11.5105 168.653 12.9663ZM168.709 19.0112H168.653V28.0584H166.335V6.20613H168.653V8.83566H168.709C169.848 6.85092 171.515 5.85352 173.71 5.85352C175.571 5.85352 177.023 6.52853 178.069 7.86344C179.115 9.20339 179.638 10.9967 179.638 13.2484C179.638 15.752 179.048 17.7569 177.874 19.2631C176.694 20.7693 175.084 21.5148 173.043 21.5148C171.171 21.5198 169.73 20.6836 168.709 19.0112Z" fill="white"/>
<path d="M193.188 20.4828C192.08 21.1779 190.757 21.5154 189.234 21.5154C187.173 21.5154 185.516 20.8253 184.244 19.435C182.977 18.0497 182.347 16.2514 182.347 14.0349C182.347 11.5666 183.029 9.58687 184.388 8.0958C185.752 6.59969 187.578 5.84912 189.855 5.84912C191.121 5.84912 192.245 6.09092 193.214 6.58458V9.0378C192.147 8.257 190.993 7.86912 189.767 7.86912C188.296 7.86912 187.08 8.4182 186.131 9.51635C185.188 10.6095 184.711 12.0502 184.711 13.8334C184.711 15.5864 185.157 16.9667 186.049 17.9842C186.942 19.0018 188.132 19.5106 189.629 19.5106C190.891 19.5106 192.08 19.0673 193.188 18.2059V20.4828Z" fill="white"/>
<path d="M208.686 21.1727H205.445L199.06 13.9843H199.003V21.1727H196.69V6.20654H199.003V13.0624H199.06L205.132 6.20654H208.163L201.46 13.4251L208.686 21.1727Z" fill="white"/>
<path d="M219.096 13.5958L215.604 14.0946C214.532 14.2507 213.727 14.5278 213.178 14.9207C212.634 15.3136 212.357 16.0138 212.357 17.0162C212.357 17.7416 212.614 18.3411 213.111 18.8096C213.619 19.273 214.291 19.5047 215.127 19.5047C216.275 19.5047 217.219 19.0866 217.968 18.2554C218.717 17.4243 219.091 16.3664 219.091 15.092V13.5958H219.096ZM221.409 21.1721H219.096V18.8347H219.04C218.035 20.6331 216.552 21.5247 214.593 21.5247C213.152 21.5247 212.029 21.1318 211.214 20.3409C210.398 19.5551 209.993 18.5073 209.993 17.2026C209.993 14.4069 211.583 12.7798 214.768 12.3214L219.101 11.6967C219.101 9.14782 218.106 7.87336 216.122 7.87336C214.378 7.87336 212.809 8.48792 211.409 9.71705V7.2588C212.824 6.32688 214.47 5.8584 216.316 5.8584C219.717 5.8584 221.414 7.72224 221.414 11.4449V21.1721H221.409Z" fill="white"/>
<path d="M233.334 12.9718V8.24669H230.595C228.647 8.24669 227.677 9.01237 227.677 10.5437C227.677 12.1658 228.621 12.9718 230.513 12.9718H233.334ZM235.652 21.1727H233.339V14.9767H231.411C230.477 14.9767 229.626 15.7524 228.867 17.314L226.99 21.1727H224.303L226.734 16.5534C227.298 15.4804 227.98 14.7752 228.78 14.4326C227.646 14.2765 226.79 13.8483 226.19 13.1481C225.6 12.4428 225.303 11.5714 225.303 10.5186C225.303 9.19372 225.769 8.1409 226.693 7.36514C227.621 6.58939 228.923 6.20654 230.595 6.20654H235.647V21.1727H235.652Z" fill="white"/>
<path d="M258.086 20.4828C256.973 21.1779 255.655 21.5154 254.132 21.5154C252.07 21.5154 250.408 20.8253 249.142 19.435C247.875 18.0497 247.244 16.2514 247.244 14.0349C247.244 11.5666 247.926 9.58687 249.29 8.0958C250.655 6.59969 252.48 5.84912 254.757 5.84912C256.029 5.84912 257.147 6.09092 258.111 6.58458V9.0378C257.039 8.257 255.896 7.86912 254.675 7.86912C253.193 7.86912 251.983 8.4182 251.039 9.51635C250.09 10.6095 249.613 12.0502 249.613 13.8334C249.613 15.5864 250.054 16.9667 250.947 17.9842C251.839 19.0018 253.029 19.5106 254.527 19.5106C255.788 19.5106 256.973 19.0673 258.086 18.2059V20.4828Z" fill="white"/>
<path d="M270.83 12.2561C270.82 10.8708 270.497 9.79276 269.866 9.02204C269.225 8.25132 268.343 7.86848 267.215 7.86848C266.122 7.86848 265.194 8.27651 264.435 9.08249C263.671 9.89351 263.199 10.9463 263.025 12.2561H270.83ZM273.204 14.2912H262.994C263.03 15.9535 263.471 17.2431 264.296 18.1498C265.122 19.0565 266.266 19.5099 267.712 19.5099C269.338 19.5099 270.835 18.9508 272.199 17.8375V20.0942C270.927 21.0463 269.251 21.5198 267.158 21.5198C265.112 21.5198 263.507 20.8448 262.343 19.4847C261.178 18.1246 260.594 16.2104 260.594 13.7471C260.594 11.4148 261.23 9.52074 262.507 8.05486C263.789 6.58898 265.368 5.85352 267.256 5.85352C269.148 5.85352 270.61 6.48823 271.651 7.75765C272.681 9.02708 273.204 10.7801 273.204 13.0318V14.2912Z" fill="white"/>
<path d="M285.786 8.24669H281.452V21.1727H279.134V8.24669H274.785V6.20654H285.786V8.24669Z" fill="white"/>
<path d="M290.878 14.0144V19.1223H294.35C296.268 19.1223 297.232 18.2458 297.232 16.4928C297.232 14.8405 296.268 14.0144 294.325 14.0144H290.878ZM288.565 21.1725V6.21143H290.878V11.9541H294.776C296.258 11.9541 297.433 12.352 298.304 13.153C299.171 13.9539 299.607 15.0672 299.607 16.4978C299.607 17.9435 299.166 19.082 298.294 19.9232C297.422 20.7594 296.315 21.1775 294.976 21.1775H288.565V21.1725Z" fill="white"/>
<path d="M84.9678 56.2223C83.4652 57.0434 81.6036 57.4514 79.3727 57.4514C76.4957 57.4514 74.188 56.4893 72.4546 54.57C70.7263 52.6508 69.8545 50.127 69.8545 47.0139C69.8545 43.659 70.8289 40.9539 72.7828 38.8836C74.7213 36.8182 77.1983 35.7805 80.1881 35.7805C82.1113 35.7805 83.7011 36.0727 84.9627 36.647V39.2614C83.5113 38.4252 81.9164 38.002 80.1625 38.002C77.8393 38.002 75.9521 38.808 74.5111 40.4099C73.0649 42.0219 72.3469 44.1678 72.3469 46.8628C72.3469 49.4168 73.0187 51.4468 74.3674 52.9631C75.7162 54.4743 77.4906 55.235 79.6856 55.235C81.7164 55.235 83.4805 54.7715 84.9678 53.8346V56.2223Z" fill="white"/>
<path d="M103.178 57.099H99.8749L92.054 47.5078C91.7617 47.1502 91.5874 46.9084 91.5207 46.7774H91.4643V57.099H89.0898V36.1384H91.4643V45.9916H91.5207C91.654 45.78 91.8284 45.5382 92.054 45.2763L99.6185 36.1384H102.572L93.8849 46.1981L103.178 57.099Z" fill="white"/>
<path d="M108.231 47.2409V54.8725H111.559C112.964 54.8725 114.046 54.535 114.81 53.8499C115.569 53.1648 115.949 52.2128 115.949 50.9836C115.949 48.4901 114.487 47.2358 111.554 47.2358H108.231V47.2409ZM105.861 57.099V36.1384H116.677V38.3599H108.231V45.0244H112.072C114.087 45.0244 115.651 45.5281 116.775 46.5356C117.898 47.5431 118.457 48.9788 118.457 50.8426C118.457 52.7719 117.862 54.2982 116.693 55.4166C115.518 56.5349 113.908 57.099 111.877 57.099H105.861Z" fill="white"/>
<path d="M144.395 57.099H141.092L133.272 47.5078C132.984 47.1502 132.8 46.9084 132.733 46.7774H132.682V57.099H130.312V36.1384H132.682V45.9916H132.733C132.866 45.78 133.046 45.5382 133.272 45.2763L140.836 36.1384H143.785L135.113 46.1981L144.395 57.099Z" fill="white"/>
<path d="M152.6 43.8005C151.113 43.8005 149.939 44.3244 149.072 45.3671C148.205 46.42 147.775 47.8607 147.775 49.7094C147.775 51.4775 148.211 52.8779 149.087 53.9005C149.959 54.9181 151.139 55.4319 152.6 55.4319C154.098 55.4319 155.247 54.9281 156.052 53.9257C156.857 52.9232 157.262 51.4926 157.262 49.6439C157.262 47.77 156.857 46.3243 156.052 45.3168C155.247 44.3043 154.098 43.8005 152.6 43.8005ZM152.431 57.4468C150.293 57.4468 148.585 56.7466 147.313 55.3513C146.041 53.9509 145.405 52.1022 145.405 49.79C145.405 47.2713 146.062 45.3117 147.39 43.8962C148.718 42.4807 150.513 41.7805 152.77 41.7805C154.924 41.7805 156.611 42.4706 157.816 43.8408C159.031 45.216 159.631 47.1202 159.631 49.5583C159.631 51.951 158.975 53.8552 157.678 55.2908C156.375 56.7265 154.621 57.4468 152.431 57.4468Z" fill="white"/>
<path d="M175.33 57.0991H173.017V50.3036H165.647V57.0991H163.324V42.1279H165.647V48.2685H173.017V42.1279H175.33V57.0991Z" fill="white"/>
<path d="M189.095 44.1728H184.757V57.0988H182.444V44.1728H178.095V42.1226H189.095V44.1728Z" fill="white"/>
<path d="M203.956 42.1226L197.31 59.4966C196.12 62.5996 194.458 64.1461 192.31 64.1461C191.704 64.1461 191.207 64.0856 190.797 63.9547V61.8087C191.299 61.985 191.751 62.0707 192.171 62.0707C193.335 62.0707 194.212 61.3503 194.797 59.9096L195.956 57.0736L190.31 42.1226H192.869L196.787 53.6481C196.833 53.7942 196.935 54.1771 197.084 54.7866H197.171C197.212 54.5498 197.315 54.1871 197.448 53.6784L201.556 42.1226H203.956Z" fill="white"/>
<path d="M208.756 48.8984V50.9889C208.756 52.2281 209.146 53.2708 209.925 54.1373C210.7 54.9987 211.689 55.4319 212.879 55.4319C214.284 55.4319 215.377 54.8778 216.172 53.7695C216.972 52.6563 217.372 51.1098 217.372 49.1301C217.372 47.4677 217.002 46.1631 216.254 45.216C215.51 44.269 214.505 43.8005 213.233 43.8005C211.884 43.8005 210.807 44.2791 209.987 45.2513C209.166 46.2185 208.756 47.4375 208.756 48.8984ZM208.818 54.9332H208.756V63.9854H206.448V42.1231H208.756V44.7576H208.818C209.951 42.7729 211.623 41.7805 213.813 41.7805C215.674 41.7805 217.131 42.4455 218.172 43.7854C219.213 45.1253 219.741 46.9187 219.741 49.1754C219.741 51.679 219.151 53.6839 217.977 55.1901C216.803 56.6963 215.192 57.4468 213.151 57.4468C211.274 57.4468 209.828 56.6157 208.818 54.9332Z" fill="white"/>
<path d="M26.6482 0C21.4531 0 17.2324 4.3775 17.2324 9.75241V13.732H21.2069V9.75241C21.2069 6.64433 23.6429 4.11556 26.6482 4.11556H51.68V30.0431C51.68 33.1562 49.2389 35.6799 46.2387 35.6799H42.7719H30.6894H21.2069V26.0736H17.2324V39.7904H46.2387C51.4338 39.7904 55.6545 35.4129 55.6545 30.0431V0H26.6482Z" fill="white"/>
<path d="M34.4577 43.8959V47.8805C34.4577 50.9885 32.0166 53.5173 29.0114 53.5173H3.97451V27.5848C3.97451 24.4767 6.41562 21.9479 9.41574 21.9479H34.4577V31.5744H38.4271V17.8374H25.124H13.0364H9.41064C4.22069 17.8374 0 22.2099 0 27.5848V57.6228H29.0062C34.1962 57.6228 38.422 53.2503 38.422 47.8754V43.8908H34.4577V43.8959Z" fill="white"/>
</svg>
