<svg width="304" height="115" viewBox="0 0 304 115" fill="none" xmlns="http://www.w3.org/2000/svg">
<path d="M12.7561 82.4709V103.795H26.5429V112.445H2.10547V82.4709H12.7561Z" stroke="white" stroke-width="2.01342" stroke-miterlimit="10"/>
<path d="M40.3762 82.4709V112.445H29.7236V82.4709H40.3762Z" stroke="white" stroke-width="2.01342" stroke-miterlimit="10"/>
<path d="M54.7608 112.445L42.9102 82.4709H54.2068L60.2031 100.841L66.1514 82.4709H77.4481L65.6434 112.445H54.7608V112.445Z" stroke="white" stroke-width="2.01342" stroke-miterlimit="10"/>
<path d="M104.423 82.4709V90.2634H90.636V93.7312H102.763V101.01H90.636V104.564H104.699V112.443H79.9834V82.4709H104.423Z" stroke="white" stroke-width="2.01342" stroke-miterlimit="10"/>
<path d="M120.651 81.7861C124.848 81.7861 129.32 82.6852 132.502 84.2705V92.8336C129.366 90.9914 125.402 89.9217 121.805 89.9639C119.637 89.9639 118.947 90.4776 118.947 91.2904C118.947 94.417 134.624 93.0042 134.624 103.408C134.624 111.072 128.492 113.128 121.067 113.128C116.179 113.128 111.799 112.143 108.249 110.303V101.354C112.261 103.795 116.549 104.866 120.007 104.866C122.82 104.866 123.65 104.395 123.65 103.411C123.65 100.329 107.973 101.527 107.973 91.0796C107.971 84.7823 113.641 81.7861 120.651 81.7861Z" stroke="white" stroke-width="2.01342" stroke-miterlimit="10"/>
<path d="M163.766 82.4709V91.1203H155.097V112.445H144.493V91.1203H135.824V82.4709H163.766Z" stroke="white" stroke-width="2.01342" stroke-miterlimit="10"/>
<path d="M166.946 112.445V82.4709H181.931C188.802 82.4709 195.672 84.8691 195.672 93.0468C195.672 97.7146 193.366 100.498 190.14 101.997L198.44 112.445H186.727L180.087 103.581H177.599V112.445H166.946ZM177.599 96.1734H181.703C183.777 96.1734 184.977 95.0175 184.977 93.3478C184.977 91.6781 183.779 90.5222 181.703 90.5222H177.599V96.1734Z" stroke="white" stroke-width="2.01342" stroke-miterlimit="10"/>
<path d="M225.184 82.4709V90.2634H211.397V93.7312H223.523V101.01H211.397V104.564H225.461V112.443H200.746V82.4709H225.184Z" stroke="white" stroke-width="2.01342" stroke-miterlimit="10"/>
<path d="M227.027 112.445L239.108 82.4709H250.543L262.577 112.445H251.787L250.403 108.463H239.244L237.814 112.445H227.027ZM241.69 101.313H248.007L245.746 94.9331C245.378 93.8194 245.054 92.6213 244.824 91.08C244.594 92.6213 244.27 93.8213 243.948 94.9331L241.69 101.313Z" stroke="white" stroke-width="2.01342" stroke-miterlimit="10"/>
<path d="M302.002 82.4709V112.445H291.627V98.7421L286.325 106.364H280.744L275.442 98.7V112.445H265.067V82.4709H274.52L283.512 95.5734L292.551 82.4709H302.002Z" stroke="white" stroke-width="2.01342" stroke-miterlimit="10"/>
<path d="M17.8149 13.4332C24.0853 13.4332 30.2196 15.2735 30.2196 23.0679C30.2196 30.8182 24.0872 32.6604 17.8149 32.6604H2V2.68481H27.4994V10.6057H12.6526V13.4313H17.8149V13.4332ZM16.4788 25.4641C18.3229 25.4641 19.661 24.9925 19.661 23.066C19.661 21.1394 18.3229 20.6257 16.4788 20.6257H12.6526V25.4641H16.4788Z" stroke="white" stroke-width="2.01342" stroke-miterlimit="10"/>
<path d="M33.9531 32.6584V2.68481H64.2009V32.6584H53.5962V11.3341H44.5578V32.6584H33.9531Z" stroke="white" stroke-width="2.01342" stroke-miterlimit="10"/>
<path d="M85.918 2C89.2382 2 92.5583 2.60001 95.4165 3.79811V12.62C93.6184 11.464 90.6663 10.565 87.8081 10.565C83.3818 10.565 79.1856 12.62 79.1856 17.9721C79.1856 22.6821 83.3358 24.6527 87.5781 24.6527C90.8983 24.6527 93.9884 23.8821 95.6466 22.5115V31.5461C92.7884 32.7442 89.6062 33.3443 86.194 33.3443C77.0635 33.3443 68.257 28.8911 68.257 17.9721C68.211 6.58154 77.0655 2 85.918 2Z" stroke="white" stroke-width="2.01342" stroke-miterlimit="10"/>
<path d="M124.972 2.68481C132.258 2.68481 136.407 5.04076 136.407 10.2645C136.407 13.347 135.115 15.5304 131.796 16.7304C135.577 17.8001 137.699 20.2423 137.699 24.0954C137.699 30.9044 131.336 32.6584 124.558 32.6584H108.835V2.68481H124.972ZM123.498 9.96352H119.486V14.3745L123.498 14.4166C125.296 14.4166 126.172 13.3891 126.172 12.1891C126.172 10.9488 125.296 9.96352 123.498 9.96352ZM124.004 20.4972H119.486V25.3778H124.004C126.032 25.3778 127.094 24.5209 127.094 22.9375C127.094 21.3541 126.032 20.4972 124.004 20.4972Z" fill="white"/>
<path d="M155.637 2.68481C163.846 2.68481 170.116 5.33981 170.116 13.7744C170.116 22.1669 163.846 24.8219 155.637 24.8219H152.179V32.6584H141.528V2.68481H155.637ZM155.545 10.8204H152.179V16.6863H155.545C157.989 16.6863 159.557 15.8294 159.557 13.7744C159.555 11.6773 157.987 10.8204 155.545 10.8204Z" fill="white"/>
<path d="M198.288 2.68481V10.4773H184.501V13.9451H196.628V21.2238H184.501V24.7778H198.564V32.6565H173.851V2.68481H198.288Z" fill="white"/>
<path d="M239.925 2.68481V32.6584H229.551V18.956L224.248 26.5778H218.67L213.368 18.9138V32.6584H202.993V2.68481H212.446L221.438 15.7873L230.477 2.68481H239.925Z" fill="white"/>
<path d="M242.784 32.6584L250.993 22.0826C247.396 20.4551 245.09 17.6716 245.09 13.347C245.09 5.38198 251.777 2.68481 258.831 2.68481H273.818V32.6584H263.209V23.7944H261.411L254.771 32.6584H242.784ZM259.429 16.3873H263.209V10.7341H259.429C257.031 10.7341 255.833 11.8901 255.833 13.5597C255.833 15.2294 257.031 16.3873 259.429 16.3873Z" fill="white"/>
<path d="M2 72.6553V42.6816H32.2477V72.6553H21.6431V51.331H12.6046V72.6553H2Z" fill="white"/>
<path d="M62.0341 42.6816V50.4741H48.2473V53.9419H60.374V61.2206H48.2473V64.7746H62.3121V72.6533H37.5967V42.6816H62.0341Z" fill="white"/>
<path d="M80.8471 42.6816C89.0556 42.6816 95.3259 45.3366 95.3259 53.7713C95.3259 62.1637 89.0556 64.8187 80.8471 64.8187H77.3889V72.6553H66.7383V42.6816H80.8471ZM80.7551 50.8172H77.3889V56.6831H80.7551C83.1992 56.6831 84.7673 55.8263 84.7673 53.7713C84.7673 51.6741 83.1992 50.8172 80.7551 50.8172Z" fill="white"/>
<path d="M115.198 42.6816C122.485 42.6816 126.633 45.0376 126.633 50.2613C126.633 53.3438 125.341 55.5291 122.023 56.7272C125.803 57.7969 127.925 60.2391 127.925 64.0922C127.925 70.9012 121.563 72.6553 114.784 72.6553H99.0596V42.6816H115.198ZM113.722 49.9623H109.71V54.3732L113.722 54.4154C115.521 54.4154 116.397 53.3879 116.397 52.1879C116.397 50.9457 115.521 49.9623 113.722 49.9623ZM114.23 60.496H109.712V65.3766H114.23C116.259 65.3766 117.321 64.5197 117.321 62.9363C117.319 61.3509 116.259 60.496 114.23 60.496Z" fill="white"/>
<path d="M131.751 72.6553V42.6816H142.402V51.2447H145.86C153.284 51.2447 159.785 53.5144 159.785 61.949C159.785 70.3415 153.282 72.6533 145.86 72.6533H131.751V72.6553ZM142.402 64.5197H145.768C147.658 64.5197 149.272 63.7912 149.272 61.9509C149.272 60.1107 147.658 59.3822 145.768 59.3822H142.402V64.5197ZM161.769 72.6553V42.6816H172.419V72.6553H161.769Z" fill="white"/>
<path d="M174.449 72.6553L185.516 57.1969L175.003 42.6816H187.408L192.204 50.4319L196.954 42.6816H209.359L198.846 57.1969L209.913 72.6553H197.508L192.206 64.2206L186.858 72.6553H174.449Z" fill="white"/>
</svg>
