<svg width="79" height="81" viewBox="0 0 79 81" fill="none" xmlns="http://www.w3.org/2000/svg">
<path d="M9.00817 22.3587C10.0944 20.3505 11.7421 18.7079 14.2136 20.0714C16.6712 21.4279 16.1936 23.7133 15.1057 25.7215L12.3648 30.7869L2.85645 25.5431L7.27478 17.3762L9.78654 18.7627L7.21355 23.5173L8.10912 24.0118L9.00817 22.3587ZM12.5939 24.8931C12.914 24.3032 12.9962 23.791 12.384 23.4555C11.7736 23.1181 11.3783 23.4572 11.0582 24.0471L10.3952 25.2729L11.9292 26.1189L12.5939 24.8931Z" stroke="white" stroke-width="1.2" stroke-miterlimit="10"/>
<path d="M17.7868 21.1014L11.1436 12.4629L19.7791 5.69312L26.4223 14.3333L23.3945 16.7071L18.6684 10.5607L16.0884 12.583L20.8145 18.7294L17.7868 21.1014Z" stroke="white" stroke-width="1.2" stroke-miterlimit="10"/>
<path d="M30.6261 1.49292C31.7858 1.17854 32.9997 1.07787 34.1104 1.22976L34.9343 4.34002C34.1979 4.10159 33.0837 4.0645 32.0867 4.33473C30.5422 4.75331 29.2688 5.87308 29.7691 7.76114C30.2098 9.42137 31.8418 9.72338 33.3233 9.32246C34.483 9.00808 35.4888 8.44466 35.94 7.8053L36.7849 10.9897C35.8998 11.6821 34.8451 12.1943 33.6539 12.5175C30.467 13.3794 26.9757 12.6411 25.9542 8.7926C24.8732 4.78158 27.5354 2.3301 30.6261 1.49292Z" stroke="white" stroke-width="1.2" stroke-miterlimit="10"/>
<path d="M51.5809 2.69555C54.1014 3.46031 55.2943 4.7196 54.7503 6.54585C54.4302 7.62322 53.7551 8.25022 52.4817 8.32087C53.6781 9.09269 54.1591 10.1683 53.7586 11.5141C53.0502 13.8932 50.6661 13.8385 48.3205 13.1267L42.8789 11.4753L45.9959 1L51.5809 2.69555ZM49.3927 8.81894L47.829 8.34383L47.3217 10.05L48.8855 10.5251C49.5869 10.7388 50.0434 10.5498 50.2078 9.99698C50.3722 9.4424 50.0941 9.03265 49.3927 8.81894ZM50.3128 5.08344L48.9239 4.66132L48.4657 6.20321L49.8492 6.63946C50.4719 6.82844 50.8812 6.56174 51.0072 6.14139C51.1349 5.70867 50.9354 5.27242 50.3128 5.08344Z" fill="white"/>
<path d="M64.414 9.83765C66.7089 11.7363 67.8545 13.9352 65.9217 16.316C63.9994 18.6845 61.6381 17.9851 59.3432 16.0864L58.376 15.2864L56.5813 17.4976L53.6025 15.0338L60.4697 6.57373L64.414 9.83765ZM62.5249 12.1125L61.5839 11.3336L60.2405 12.9903L61.1816 13.7692C61.8655 14.3344 62.4987 14.4545 62.9709 13.8752C63.4502 13.2817 63.2071 12.6777 62.5249 12.1125Z" fill="white"/>
<path d="M75.6027 24.5032L73.1626 25.9232L70.6736 21.5643L69.5874 22.1966L71.7756 26.031L69.4964 27.3574L67.3065 23.523L66.194 24.1712L68.7321 28.6167L66.2658 30.0526L61.8037 22.239L71.1896 16.7761L75.6027 24.5032Z" fill="white"/>
<path d="M78.9999 43.3724L68.2095 44.3562L67.8719 40.5853L72.8045 40.135L69.8886 38.4571L69.7067 36.4295L72.2937 34.25L67.3454 34.7004L67.0078 30.9296L77.7983 29.9458L78.1061 33.381L73.6825 37.0795L78.6938 39.9336L78.9999 43.3724Z" fill="white"/>
<path d="M68.0017 44.8047L70.503 48.987C71.5192 47.975 72.7576 47.5564 74.2164 48.1234C76.9031 49.1689 76.9433 51.7988 76.0267 54.2026L74.0799 59.3069L63.9717 55.3736L65.35 51.7617L68.3393 52.9239L68.5719 52.311L66.445 48.8864L68.0017 44.8047ZM71.3286 52.6077L70.8371 53.8953L72.7436 54.6371L73.2351 53.3495C73.5465 52.5335 73.3121 51.9737 72.7489 51.7547C72.1839 51.5339 71.6399 51.7917 71.3286 52.6077Z" fill="white"/>
<path d="M60.4089 60.1741L66.7286 69.0598L57.8499 75.4993L51.5303 66.6136L54.6437 64.3564L59.1408 70.6776L61.7942 68.7542L57.2972 62.433L60.4089 60.1741Z" fill="white"/>
<path d="M44.0225 79.712L43.3753 76.9444L48.224 75.7893L47.9353 74.5565L43.6692 75.572L43.0657 72.9863L47.3319 71.9708L47.0363 70.7079L42.0897 71.886L41.4355 69.0866L50.1288 67.0166L52.6143 77.6632L44.0225 79.712Z" fill="white"/>
<path d="M33.3078 79.2158C30.3762 78.7601 28.2825 77.4549 28.746 74.4117C29.2078 71.3845 31.5936 70.7751 34.5252 71.2308L35.76 71.4233L36.1903 68.5974L39.9947 69.1891L38.347 80.0017L33.3078 79.2158ZM33.787 76.2856L34.9904 76.4729L35.3123 74.357L34.1106 74.1697C33.2378 74.0337 32.6308 74.2563 32.5171 74.9981C32.4017 75.754 32.9142 76.1496 33.787 76.2856Z" fill="white"/>
<path d="M18.7489 73.7315C16.4838 72.3768 15.6267 70.865 16.5888 69.2259C17.1572 68.2581 17.9601 67.813 19.2142 68.0532C18.2364 67.0147 18.0248 65.8525 18.735 64.6427C19.9891 62.5056 22.2909 63.1379 24.3987 64.3972L29.2875 67.322L23.7655 76.734L18.7489 73.7315ZM20.5488 71.7198L21.796 72.4651L22.6075 71.0804L21.3674 70.321C20.8077 69.9872 20.3459 70.1461 20.1255 70.5223C19.8981 70.9126 19.9891 71.386 20.5488 71.7198ZM22.3312 68.3181L23.7357 69.1588L24.6348 67.6258L23.2302 66.7851C22.5988 66.4071 22.1125 66.4795 21.8204 66.9776C21.5283 67.4739 21.7015 67.9401 22.3312 68.3181Z" fill="white"/>
<path d="M13.7233 52.4033L4.46334 58.0816L2.46582 54.7594L11.7258 49.0811L13.7233 52.4033ZM19.3538 61.7658L10.0938 67.4442L8.09631 64.1219L10.741 62.4988L10.0921 61.4197C8.69975 59.1042 8.18026 56.6457 10.7865 55.049C13.3787 53.4594 15.3133 55.049 16.7056 57.3645L19.3538 61.7658ZM14.8427 59.9855L14.2113 58.9346C13.8562 58.3447 13.3297 57.9791 12.7595 58.3288C12.191 58.6785 12.268 59.3197 12.6231 59.9078L13.2545 60.9569L14.8427 59.9855Z" fill="white"/>
<path d="M11.784 48.9311L5.90335 45.3439L0.969031 49.581L0.619203 45.0684L3.27615 43.1027L0.349828 41.5943L0 37.0817L5.52554 40.494L10.7835 36.0291L11.1333 40.5417L8.2437 42.7106L11.4341 44.4167L11.784 48.9311Z" fill="white"/>
</svg>
