<svg width="92" height="102" viewBox="0 0 92 102" fill="none" xmlns="http://www.w3.org/2000/svg">
<path d="M67.7429 14.7527H8.08595C3.6261 14.7527 0 18.3806 0 22.8386V65.9641C0 70.4239 3.6261 74.05 8.08595 74.05C13.7443 74.05 14.5044 74.05 14.5044 74.05H16.1719V87.5268C16.1719 89.931 19.0864 91.1188 20.7719 89.4333C28.2972 81.9062 23.0126 87.1926 35.3645 74.8407C35.8713 74.3339 36.5541 74.05 37.271 74.05H67.7427C72.2007 74.05 75.8286 70.4239 75.8286 65.9641C75.8286 40.7968 75.8286 48.067 75.8286 22.8386C75.8288 18.3806 72.2009 14.7527 67.7429 14.7527ZM13.4768 30.9246H51.571C53.0606 30.9246 54.2663 32.1303 54.2663 33.6199C54.2663 35.1095 53.0606 36.3152 51.571 36.3152H13.4768C11.9872 36.3152 10.7815 35.1095 10.7815 33.6199C10.7815 32.1303 11.9872 30.9246 13.4768 30.9246ZM40.7895 57.8781H13.4768C11.9872 57.8781 10.7815 56.6724 10.7815 55.1828C10.7815 53.6932 11.9872 52.4875 13.4768 52.4875H40.7895C42.2791 52.4875 43.4848 53.6932 43.4848 55.1828C43.4848 56.6724 42.2791 57.8781 40.7895 57.8781ZM62.3522 47.0967H13.4768C11.9872 47.0967 10.7815 45.891 10.7815 44.4014C10.7815 42.9117 11.9872 41.706 13.4768 41.706H62.3522C63.8418 41.706 65.0475 42.9117 65.0475 44.4014C65.0475 45.891 63.8418 47.0967 62.3522 47.0967Z" fill="#F7625D"/>
<path d="M83.9141 25.5342H81.2547V65.9643C81.2547 73.3949 75.1728 79.4411 67.742 79.4411H38.7461L32.9961 84.7958H55.8447L71.227 100.214C72.917 101.904 75.8279 100.718 75.8279 98.3085V84.7958H83.9139C88.3727 84.7958 91.9998 81.2045 91.9998 76.7458V33.6203C92 29.1614 88.373 25.5342 83.9141 25.5342Z" fill="#F7625D"/>
<path d="M67.7429 0.75293H8.08595C3.6261 0.75293 0 4.38083 0 8.83888V51.9643C0 56.4242 3.6261 60.0503 8.08595 60.0503C13.7443 60.0503 14.5044 60.0503 14.5044 60.0503H16.1719V73.527C16.1719 75.9313 19.0864 77.119 20.7719 75.4335C28.2972 67.9064 23.0126 73.1928 35.3645 60.8409C35.8713 60.3342 36.5541 60.0503 37.271 60.0503H67.7427C72.2007 60.0503 75.8286 56.4242 75.8286 51.9643C75.8286 26.7971 75.8286 34.0672 75.8286 8.83888C75.8288 4.38083 72.2009 0.75293 67.7429 0.75293ZM13.4768 16.9248H51.571C53.0606 16.9248 54.2663 18.1305 54.2663 19.6202C54.2663 21.1098 53.0606 22.3155 51.571 22.3155H13.4768C11.9872 22.3155 10.7815 21.1098 10.7815 19.6202C10.7815 18.1305 11.9872 16.9248 13.4768 16.9248ZM40.7895 43.8784H13.4768C11.9872 43.8784 10.7815 42.6727 10.7815 41.1831C10.7815 39.6934 11.9872 38.4877 13.4768 38.4877H40.7895C42.2791 38.4877 43.4848 39.6934 43.4848 41.1831C43.4848 42.6727 42.2791 43.8784 40.7895 43.8784ZM62.3522 33.0969H13.4768C11.9872 33.0969 10.7815 31.8912 10.7815 30.4016C10.7815 28.912 11.9872 27.7063 13.4768 27.7063H62.3522C63.8418 27.7063 65.0475 28.912 65.0475 30.4016C65.0475 31.8912 63.8418 33.0969 62.3522 33.0969Z" fill="white"/>
<path d="M83.9141 11.5344H81.2547V51.9646C81.2547 59.3952 75.1728 65.4413 67.742 65.4413H38.7461L32.9961 70.796H55.8447L71.227 86.2143C72.917 87.9043 75.8279 86.7182 75.8279 84.3087V70.796H83.9139C88.3727 70.796 91.9998 67.2048 91.9998 62.746V19.6206C92 15.1616 88.373 11.5344 83.9141 11.5344Z" fill="white"/>
</svg>
