<svg width="82" height="103" viewBox="0 0 82 103" fill="none" xmlns="http://www.w3.org/2000/svg">
<path d="M46.0116 10.75C26.8474 10.75 11.3941 25.7458 10.4283 44.605L0.66825 57.4658C-0.55175 59.0417 0.668251 61.5833 2.80325 61.5833H10.4283V76.8333C10.4283 82.4758 14.9524 87 20.5949 87H25.6782V102.25H61.2616V78.4092C73.3091 72.7158 81.5949 60.5667 81.5949 46.3333C81.5949 26.7117 65.7349 10.75 46.0116 10.75ZM51.0949 66.6667H40.9282V56.5H51.0949V66.6667ZM59.9907 40.2842C58.5166 42.3175 56.6357 43.7917 54.3483 45.0117C53.0774 45.825 52.2132 46.6892 51.7557 47.655C51.2982 48.57 51.0949 49.8408 51.0949 51.4167H40.9282C40.9282 48.875 41.4874 46.74 42.5041 45.4183C43.4699 44.0458 45.2491 42.5208 47.8416 40.7925C49.1632 39.9792 50.2308 38.9625 50.9424 37.7933C51.7557 36.6242 52.1116 35.2517 52.1116 33.625C52.1116 32.1 51.7049 30.7783 50.7899 29.8125C49.8749 28.8975 48.5532 28.3892 46.9774 28.3892C45.7549 28.3627 44.5637 28.7778 43.6224 29.5583C42.7074 30.3717 42.2499 31.5408 42.1991 33.0658H32.3882L32.3374 32.9133C32.2866 28.8975 33.6082 26 36.2516 23.9158C38.9966 21.9333 42.5549 20.9167 46.9774 20.9167C51.7049 20.9167 55.4157 22.0858 58.1099 24.3733C60.8549 26.6608 62.2274 29.7617 62.2274 33.625C62.2274 36.1667 61.4649 38.2508 59.9907 40.2842Z" fill="#F7625D"/>
<path d="M46.0116 0C26.8474 0 11.3941 14.9958 10.4283 33.855L0.66825 46.7158C-0.55175 48.2917 0.668251 50.8333 2.80325 50.8333H10.4283V66.0833C10.4283 71.7258 14.9524 76.25 20.5949 76.25H25.6782V91.5H61.2616V67.6592C73.3091 61.9658 81.5949 49.8167 81.5949 35.5833C81.5949 15.9617 65.7349 0 46.0116 0ZM51.0949 55.9167H40.9282V45.75H51.0949V55.9167ZM59.9907 29.5342C58.5166 31.5675 56.6357 33.0417 54.3483 34.2617C53.0774 35.075 52.2132 35.9392 51.7557 36.905C51.2982 37.82 51.0949 39.0908 51.0949 40.6667H40.9282C40.9282 38.125 41.4874 35.99 42.5041 34.6683C43.4699 33.2958 45.2491 31.7708 47.8416 30.0425C49.1632 29.2292 50.2308 28.2125 50.9424 27.0433C51.7557 25.8742 52.1116 24.5017 52.1116 22.875C52.1116 21.35 51.7049 20.0283 50.7899 19.0625C49.8749 18.1475 48.5532 17.6392 46.9774 17.6392C45.7549 17.6127 44.5637 18.0278 43.6224 18.8083C42.7074 19.6217 42.2499 20.7908 42.1991 22.3158H32.3882L32.3374 22.1633C32.2866 18.1475 33.6082 15.25 36.2516 13.1658C38.9966 11.1833 42.5549 10.1667 46.9774 10.1667C51.7049 10.1667 55.4157 11.3358 58.1099 13.6233C60.8549 15.9108 62.2274 19.0117 62.2274 22.875C62.2274 25.4167 61.4649 27.5008 59.9907 29.5342Z" fill="white"/>
</svg>
