<svg width="93" height="107" viewBox="0 0 93 107" fill="none" xmlns="http://www.w3.org/2000/svg">
<path d="M69.4355 66.6299C53.5598 66.6299 40.6855 53.7556 40.6855 37.8799C40.6855 35.9076 40.8868 33.9871 41.2663 32.1299H11.9355C5.5933 32.1299 0.435547 37.2876 0.435547 43.6299V78.1299C0.435547 84.4721 5.5933 89.6299 11.9355 89.6299V104.005C11.9355 105.126 12.591 106.15 13.6088 106.615C13.994 106.794 14.4023 106.88 14.8105 106.88C15.4833 106.88 16.1503 106.644 16.6793 106.19L35.9993 89.6299H63.6855C70.0278 89.6299 75.1855 84.4721 75.1855 78.1299V66.0491C73.3283 66.4286 71.4078 66.6299 69.4355 66.6299Z" fill="#F7625D"/>
<path d="M69.4355 14.8799C56.7338 14.8799 46.4355 25.1781 46.4355 37.8799C46.4355 50.5816 56.7338 60.8799 69.4355 60.8799C82.1373 60.8799 92.4355 50.5816 92.4355 37.8799C92.4355 25.1781 82.1373 14.8799 69.4355 14.8799ZM80.096 34.1654L68.596 45.6654C68.0325 46.2231 67.2965 46.5049 66.5605 46.5049C65.8245 46.5049 65.0885 46.2231 64.525 45.6654L58.775 39.9154C57.6538 38.7941 57.6538 36.9714 58.775 35.8501C59.8963 34.7289 61.719 34.7289 62.8403 35.8501L66.5605 39.5646L76.025 30.1001C77.1463 28.9789 78.969 28.9789 80.0903 30.1001C81.2115 31.2214 81.2173 33.0384 80.096 34.1654Z" fill="#F7625D"/>
<path d="M69.4355 52.6301C53.5598 52.6301 40.6855 39.7559 40.6855 23.8801C40.6855 21.9079 40.8868 19.9874 41.2663 18.1301H11.9355C5.5933 18.1301 0.435547 23.2879 0.435547 29.6301V64.1301C0.435547 70.4724 5.5933 75.6301 11.9355 75.6301V90.0051C11.9355 91.1264 12.591 92.1499 13.6088 92.6156C13.994 92.7939 14.4023 92.8801 14.8105 92.8801C15.4833 92.8801 16.1503 92.6444 16.6793 92.1901L35.9993 75.6301H63.6855C70.0278 75.6301 75.1855 70.4724 75.1855 64.1301V52.0494C73.3283 52.4289 71.4078 52.6301 69.4355 52.6301Z" fill="white"/>
<path d="M69.4355 0.880119C56.7338 0.880119 46.4355 11.1784 46.4355 23.8801C46.4355 36.5819 56.7338 46.8801 69.4355 46.8801C82.1373 46.8801 92.4355 36.5819 92.4355 23.8801C92.4355 11.1784 82.1373 0.880119 69.4355 0.880119ZM80.096 20.1656L68.596 31.6656C68.0325 32.2234 67.2965 32.5051 66.5605 32.5051C65.8245 32.5051 65.0885 32.2234 64.525 31.6656L58.775 25.9156C57.6538 24.7944 57.6538 22.9716 58.775 21.8504C59.8963 20.7291 61.719 20.7291 62.8403 21.8504L66.5605 25.5649L76.025 16.1004C77.1463 14.9791 78.969 14.9791 80.0903 16.1004C81.2115 17.2216 81.2173 19.0386 80.096 20.1656Z" fill="white"/>
</svg>
