<svg width="514" height="397" viewBox="0 0 514 397" fill="none" xmlns="http://www.w3.org/2000/svg">
<path opacity="0.34" fill-rule="evenodd" clip-rule="evenodd" d="M109.138 44.1296H97V11.2752H127.915V44.1296H115.777V22.1789H109.138V44.1296ZM108.138 43.1296H98V12.2752H126.915V43.1296H116.777V21.1789H108.138V43.1296ZM132.338 11.2752H157.699V21.2974H144.52V22.8677H156.112V32.3609H144.52V34.0193H157.964V44.1296H132.338V11.2752ZM156.964 35.0193V43.1296H133.338V12.2752H156.699V20.2974H143.52V23.8677H155.112V31.3609H143.52V35.0193H156.964ZM161.52 11.2752H176.008C180.016 11.2752 183.724 11.9674 186.451 13.913C189.243 15.904 190.849 19.0915 190.849 23.6914C190.849 28.2711 189.241 31.4473 186.45 33.432C183.723 35.3712 180.016 36.0634 176.008 36.0634H173.702V44.1296H161.52V11.2752ZM172.702 43.1296H162.52V12.2752H176.008C183.854 12.2752 189.849 15.008 189.849 23.6914C189.849 32.3306 183.854 35.0634 176.008 35.0634H172.702V43.1296ZM178.125 25.1747C178.492 24.9079 178.755 24.4839 178.755 23.6914C178.755 22.8694 178.487 22.4353 178.121 22.1663C177.7 21.8567 176.99 21.65 175.92 21.65H173.702V25.6886H175.92C176.99 25.6886 177.703 25.4821 178.125 25.1747ZM193.759 11.2752H210.186C213.754 11.2752 216.725 11.8909 218.829 13.3351C221 14.8247 222.118 17.1051 222.118 20.077C222.118 21.7897 221.785 23.3479 220.949 24.6674C220.465 25.4297 219.834 26.0809 219.055 26.6256C220.101 27.1945 220.988 27.9299 221.682 28.844C222.797 30.3114 223.352 32.1556 223.352 34.3141C223.352 38.1778 221.638 40.7133 218.996 42.2189C216.439 43.6755 213.089 44.1296 209.79 44.1296H193.759V11.2752ZM218.037 27.2338C217.622 27.0429 217.179 26.8759 216.71 26.7327C217.176 26.5513 217.601 26.348 217.986 26.123C220.22 24.8176 221.118 22.7841 221.118 20.077C221.118 14.6995 217.151 12.2752 210.186 12.2752H194.759V43.1296H209.79C216.269 43.1296 222.352 41.3224 222.352 34.3141C222.352 30.8626 220.817 28.5121 218.037 27.2338ZM210.815 34.2319C211.036 34.0424 211.214 33.7237 211.214 33.124C211.214 32.5242 211.036 32.2056 210.815 32.016C210.566 31.8037 210.097 31.6116 209.261 31.6116H205.941V34.6364H209.261C210.097 34.6364 210.566 34.4443 210.815 34.2319ZM209.996 22.9576C210.203 22.7535 210.332 22.4508 210.332 22.0605C210.332 21.6413 210.199 21.3443 210.001 21.1515C209.804 20.9595 209.437 20.7684 208.776 20.7684H205.941V23.3199L208.776 23.3525C208.778 23.3525 208.779 23.3525 208.781 23.3525C209.427 23.3514 209.794 23.157 209.996 22.9576ZM204.941 24.3084V19.7684H208.776C210.495 19.7684 211.332 20.7822 211.332 22.0605C211.332 23.2947 210.495 24.3525 208.776 24.3525L204.941 24.3084ZM227.342 43.1296V12.2752H237.524V21.0908H240.83C247.927 21.0908 254.141 23.4269 254.141 32.1102C254.141 40.7494 247.927 43.1296 240.83 43.1296H227.342ZM238.524 20.0908V11.2752H226.342V44.1296H240.83C244.458 44.1296 248.027 43.5271 250.713 41.6841C253.067 40.0689 254.631 37.5788 255.037 34.0225V44.1296H267.219V11.2752H255.037V30.1896C254.631 26.6207 253.067 24.13 250.711 22.5188C248.025 20.6813 244.455 20.0908 240.83 20.0908H238.524ZM240.742 30.4655H238.524V33.7549H240.742C241.53 33.7549 242.141 33.588 242.525 33.3216C242.857 33.091 243.092 32.7421 243.092 32.1102C243.092 31.4783 242.857 31.1294 242.525 30.8988C242.141 30.6324 241.53 30.4655 240.742 30.4655ZM266.219 12.2752V43.1296H256.037V12.2752H266.219ZM290.444 44.1296V33.8733C290.444 33.2963 290.449 32.7052 290.466 32.0988L281.773 44.1296H271.666V11.2752H283.848V21.4875C283.848 22.0913 283.843 22.71 283.825 23.3429L292.518 11.2752H302.626V44.1296H290.444ZM282.584 26.7768C282.663 26.1143 282.719 25.463 282.759 24.8231C282.83 23.6749 282.848 22.563 282.848 21.4875V12.2752H272.666V43.1296H281.262L291.708 28.6721C291.629 29.3388 291.572 29.9883 291.532 30.6227C291.462 31.75 291.444 32.8297 291.444 33.8733V43.1296H301.626V12.2752H293.03L282.584 26.7768ZM296.322 8.75824L295.873 9.05469C293.491 10.6268 290.651 11.468 287.344 11.468C284.037 11.468 281.197 10.6268 278.815 9.05469L278.366 8.75824V0.133911L279.888 1.06369C282.071 2.39791 284.61 2.94454 287.344 2.94454C290.036 2.94454 292.619 2.39732 294.801 1.06369L296.322 0.133911V8.75824ZM295.322 1.91697C294.996 2.1163 294.663 2.29908 294.322 2.4661C292.18 3.51782 289.779 3.94454 287.344 3.94454C284.873 3.94454 282.5 3.51811 280.366 2.46716C280.027 2.29985 279.693 2.11672 279.366 1.91697V8.22008C281.57 9.67464 284.215 10.468 287.344 10.468C290.474 10.468 293.119 9.67464 295.322 8.22008V1.91697ZM175.92 26.6886C178.256 26.6886 179.755 25.8071 179.755 23.6914C179.755 21.5315 178.256 20.65 175.92 20.65H172.702V26.6886H175.92ZM209.261 35.6364C211.2 35.6364 212.214 34.7549 212.214 33.124C212.214 31.4931 211.2 30.6116 209.261 30.6116H204.941V35.6364H209.261ZM237.524 29.4655V34.7549H240.742C242.549 34.7549 244.092 34.0055 244.092 32.1102C244.092 30.2149 242.549 29.4655 240.742 29.4655H237.524Z" fill="#3D68FF"/>
<path opacity="0.34" fill-rule="evenodd" clip-rule="evenodd" d="M317.138 44.1296H305V11.2752H335.915V44.1296H323.777V22.1789H317.138V44.1296ZM316.138 43.1296H306V12.2752H334.915V43.1296H324.777V21.1789H316.138V43.1296ZM340.338 11.2752H365.699V21.2974H352.52V22.8677H364.112V32.3609H352.52V34.0193H365.964V44.1296H340.338V11.2752ZM364.964 35.0193V43.1296H341.338V12.2752H364.699V20.2974H351.52V23.8677H363.112V31.3609H351.52V35.0193H364.964ZM369.52 11.2752H384.008C388.016 11.2752 391.724 11.9674 394.451 13.913C397.243 15.904 398.849 19.0915 398.849 23.6914C398.849 28.2711 397.241 31.4473 394.45 33.432C391.723 35.3712 388.016 36.0634 384.008 36.0634H381.702V44.1296H369.52V11.2752ZM380.702 43.1296H370.52V12.2752H384.008C391.854 12.2752 397.849 15.008 397.849 23.6914C397.849 32.3306 391.854 35.0634 384.008 35.0634H380.702V43.1296ZM386.125 25.1747C386.492 24.9079 386.755 24.4839 386.755 23.6914C386.755 22.8694 386.487 22.4353 386.121 22.1663C385.7 21.8567 384.99 21.65 383.92 21.65H381.702V25.6886H383.92C384.99 25.6886 385.703 25.4821 386.125 25.1747ZM401.759 11.2752H418.186C421.754 11.2752 424.725 11.8909 426.829 13.3351C429 14.8247 430.118 17.1051 430.118 20.077C430.118 21.7897 429.785 23.3479 428.949 24.6674C428.465 25.4297 427.834 26.0809 427.055 26.6256C428.101 27.1945 428.988 27.9299 429.682 28.844C430.797 30.3114 431.352 32.1556 431.352 34.3141C431.352 38.1778 429.638 40.7133 426.996 42.2189C424.439 43.6755 421.089 44.1296 417.79 44.1296H401.759V11.2752ZM426.037 27.2338C425.622 27.0429 425.179 26.8759 424.71 26.7327C425.176 26.5513 425.601 26.348 425.986 26.123C428.22 24.8176 429.118 22.7841 429.118 20.077C429.118 14.6995 425.151 12.2752 418.186 12.2752H402.759V43.1296H417.79C424.269 43.1296 430.352 41.3224 430.352 34.3141C430.352 30.8626 428.817 28.5121 426.037 27.2338ZM418.815 34.2319C419.036 34.0424 419.214 33.7237 419.214 33.124C419.214 32.5242 419.036 32.2056 418.815 32.016C418.566 31.8037 418.097 31.6116 417.261 31.6116H413.941V34.6364H417.261C418.097 34.6364 418.566 34.4443 418.815 34.2319ZM417.996 22.9576C418.203 22.7535 418.332 22.4508 418.332 22.0605C418.332 21.6413 418.199 21.3443 418.001 21.1515C417.804 20.9595 417.437 20.7684 416.776 20.7684H413.941V23.3199L416.776 23.3525C416.778 23.3525 416.779 23.3525 416.781 23.3525C417.427 23.3514 417.794 23.157 417.996 22.9576ZM412.941 24.3084V19.7684H416.776C418.495 19.7684 419.332 20.7822 419.332 22.0605C419.332 23.2947 418.495 24.3525 416.776 24.3525L412.941 24.3084ZM435.342 43.1296V12.2752H445.524V21.0908H448.83C455.927 21.0908 462.141 23.4269 462.141 32.1102C462.141 40.7494 455.927 43.1296 448.83 43.1296H435.342ZM446.524 20.0908V11.2752H434.342V44.1296H448.83C452.458 44.1296 456.027 43.5271 458.713 41.6841C461.067 40.0689 462.631 37.5788 463.037 34.0225V44.1296H475.219V11.2752H463.037V30.1896C462.631 26.6207 461.067 24.13 458.711 22.5188C456.025 20.6813 452.455 20.0908 448.83 20.0908H446.524ZM448.742 30.4655H446.524V33.7549H448.742C449.53 33.7549 450.141 33.588 450.525 33.3216C450.857 33.091 451.092 32.7421 451.092 32.1102C451.092 31.4783 450.857 31.1294 450.525 30.8988C450.141 30.6324 449.53 30.4655 448.742 30.4655ZM474.219 12.2752V43.1296H464.037V12.2752H474.219ZM498.444 44.1296V33.8733C498.444 33.2963 498.449 32.7052 498.466 32.0988L489.773 44.1296H479.666V11.2752H491.848V21.4875C491.848 22.0913 491.843 22.71 491.825 23.3429L500.518 11.2752H510.626V44.1296H498.444ZM490.584 26.7768C490.663 26.1143 490.719 25.463 490.759 24.8231C490.83 23.6749 490.848 22.563 490.848 21.4875V12.2752H480.666V43.1296H489.262L499.708 28.6721C499.629 29.3388 499.572 29.9883 499.532 30.6227C499.462 31.75 499.444 32.8297 499.444 33.8733V43.1296H509.626V12.2752H501.03L490.584 26.7768ZM504.322 8.75824L503.873 9.05469C501.491 10.6268 498.651 11.468 495.344 11.468C492.037 11.468 489.197 10.6268 486.815 9.05469L486.366 8.75824V0.133911L487.888 1.06369C490.071 2.39791 492.61 2.94454 495.344 2.94454C498.036 2.94454 500.619 2.39732 502.801 1.06369L504.322 0.133911V8.75824ZM503.322 1.91697C502.996 2.1163 502.663 2.29908 502.322 2.4661C500.18 3.51782 497.779 3.94454 495.344 3.94454C492.873 3.94454 490.5 3.51811 488.366 2.46716C488.027 2.29985 487.693 2.11672 487.366 1.91697V8.22008C489.57 9.67464 492.215 10.468 495.344 10.468C498.474 10.468 501.119 9.67464 503.322 8.22008V1.91697ZM383.92 26.6886C386.256 26.6886 387.755 25.8071 387.755 23.6914C387.755 21.5315 386.256 20.65 383.92 20.65H380.702V26.6886H383.92ZM417.261 35.6364C419.2 35.6364 420.214 34.7549 420.214 33.124C420.214 31.4931 419.2 30.6116 417.261 30.6116H412.941V35.6364H417.261ZM445.524 29.4655V34.7549H448.742C450.549 34.7549 452.092 34.0055 452.092 32.1102C452.092 30.2149 450.549 29.4655 448.742 29.4655H445.524Z" fill="#3D68FF"/>
<path opacity="0.34" fill-rule="evenodd" clip-rule="evenodd" d="M109.138 308.13H97V275.275H127.915V308.13H115.777V286.179H109.138V308.13ZM108.138 307.13H98V276.275H126.915V307.13H116.777V285.179H108.138V307.13ZM132.338 275.275H157.699V285.297H144.52V286.868H156.112V296.361H144.52V298.019H157.964V308.13H132.338V275.275ZM156.964 299.019V307.13H133.338V276.275H156.699V284.297H143.52V287.868H155.112V295.361H143.52V299.019H156.964ZM161.52 275.275H176.008C180.016 275.275 183.724 275.967 186.451 277.913C189.243 279.904 190.849 283.091 190.849 287.691C190.849 292.271 189.241 295.447 186.45 297.432C183.723 299.371 180.016 300.063 176.008 300.063H173.702V308.13H161.52V275.275ZM172.702 307.13H162.52V276.275H176.008C183.854 276.275 189.849 279.008 189.849 287.691C189.849 296.331 183.854 299.063 176.008 299.063H172.702V307.13ZM178.125 289.175C178.492 288.908 178.755 288.484 178.755 287.691C178.755 286.869 178.487 286.435 178.121 286.166C177.7 285.857 176.99 285.65 175.92 285.65H173.702V289.689H175.92C176.99 289.689 177.703 289.482 178.125 289.175ZM193.759 275.275H210.186C213.754 275.275 216.725 275.891 218.829 277.335C221 278.825 222.118 281.105 222.118 284.077C222.118 285.79 221.785 287.348 220.949 288.667C220.465 289.43 219.834 290.081 219.055 290.626C220.101 291.195 220.988 291.93 221.682 292.844C222.797 294.311 223.352 296.156 223.352 298.314C223.352 302.178 221.638 304.713 218.996 306.219C216.439 307.675 213.089 308.13 209.79 308.13H193.759V275.275ZM218.037 291.234C217.622 291.043 217.179 290.876 216.71 290.733C217.176 290.551 217.601 290.348 217.986 290.123C220.22 288.818 221.118 286.784 221.118 284.077C221.118 278.7 217.151 276.275 210.186 276.275H194.759V307.13H209.79C216.269 307.13 222.352 305.322 222.352 298.314C222.352 294.863 220.817 292.512 218.037 291.234ZM210.815 298.232C211.036 298.042 211.214 297.724 211.214 297.124C211.214 296.524 211.036 296.206 210.815 296.016C210.566 295.804 210.097 295.612 209.261 295.612H205.941V298.636H209.261C210.097 298.636 210.566 298.444 210.815 298.232ZM209.996 286.958C210.203 286.754 210.332 286.451 210.332 286.06C210.332 285.641 210.199 285.344 210.001 285.151C209.804 284.959 209.437 284.768 208.776 284.768H205.941V287.32L208.776 287.353C208.778 287.353 208.779 287.353 208.781 287.353C209.427 287.351 209.794 287.157 209.996 286.958ZM204.941 288.308V283.768H208.776C210.495 283.768 211.332 284.782 211.332 286.06C211.332 287.295 210.495 288.353 208.776 288.353L204.941 288.308ZM227.342 307.13V276.275H237.524V285.091H240.83C247.927 285.091 254.141 287.427 254.141 296.11C254.141 304.749 247.927 307.13 240.83 307.13H227.342ZM238.524 284.091V275.275H226.342V308.13H240.83C244.458 308.13 248.027 307.527 250.713 305.684C253.067 304.069 254.631 301.579 255.037 298.023V308.13H267.219V275.275H255.037V294.19C254.631 290.621 253.067 288.13 250.711 286.519C248.025 284.681 244.455 284.091 240.83 284.091H238.524ZM240.742 294.466H238.524V297.755H240.742C241.53 297.755 242.141 297.588 242.525 297.322C242.857 297.091 243.092 296.742 243.092 296.11C243.092 295.478 242.857 295.129 242.525 294.899C242.141 294.632 241.53 294.466 240.742 294.466ZM266.219 276.275V307.13H256.037V276.275H266.219ZM290.444 308.13V297.873C290.444 297.296 290.449 296.705 290.466 296.099L281.773 308.13H271.666V275.275H283.848V285.487C283.848 286.091 283.843 286.71 283.825 287.343L292.518 275.275H302.626V308.13H290.444ZM282.584 290.777C282.663 290.114 282.719 289.463 282.759 288.823C282.83 287.675 282.848 286.563 282.848 285.487V276.275H272.666V307.13H281.262L291.708 292.672C291.629 293.339 291.572 293.988 291.532 294.623C291.462 295.75 291.444 296.83 291.444 297.873V307.13H301.626V276.275H293.03L282.584 290.777ZM296.322 272.758L295.873 273.055C293.491 274.627 290.651 275.468 287.344 275.468C284.037 275.468 281.197 274.627 278.815 273.055L278.366 272.758V264.134L279.888 265.064C282.071 266.398 284.61 266.945 287.344 266.945C290.036 266.945 292.619 266.397 294.801 265.064L296.322 264.134V272.758ZM295.322 265.917C294.996 266.116 294.663 266.299 294.322 266.466C292.18 267.518 289.779 267.945 287.344 267.945C284.873 267.945 282.5 267.518 280.366 266.467C280.027 266.3 279.693 266.117 279.366 265.917V272.22C281.57 273.675 284.215 274.468 287.344 274.468C290.474 274.468 293.119 273.675 295.322 272.22V265.917ZM175.92 290.689C178.256 290.689 179.755 289.807 179.755 287.691C179.755 285.532 178.256 284.65 175.92 284.65H172.702V290.689H175.92ZM209.261 299.636C211.2 299.636 212.214 298.755 212.214 297.124C212.214 295.493 211.2 294.612 209.261 294.612H204.941V299.636H209.261ZM237.524 293.466V298.755H240.742C242.549 298.755 244.092 298.006 244.092 296.11C244.092 294.215 242.549 293.466 240.742 293.466H237.524Z" fill="#3D68FF"/>
<path opacity="0.34" fill-rule="evenodd" clip-rule="evenodd" d="M318.784 308.13H306.646V275.275H337.561V308.13H325.424V286.179H318.784V308.13ZM317.784 307.13H307.646V276.275H336.561V307.13H326.424V285.179H317.784V307.13ZM341.984 275.275H367.346V285.297H354.166V286.868H365.759V296.361H354.166V298.019H367.61V308.13H341.984V275.275ZM366.61 299.019V307.13H342.984V276.275H366.346V284.297H353.166V287.868H364.759V295.361H353.166V299.019H366.61ZM371.167 275.275H385.655C389.662 275.275 393.37 275.967 396.098 277.913C398.889 279.904 400.495 283.091 400.495 287.691C400.495 292.271 398.888 295.447 396.097 297.432C393.37 299.371 389.662 300.063 385.655 300.063H383.349V308.13H371.167V275.275ZM382.349 307.13H372.167V276.275H385.655C393.501 276.275 399.495 279.008 399.495 287.691C399.495 296.331 393.501 299.063 385.655 299.063H382.349V307.13ZM387.772 289.175C388.139 288.908 388.401 288.484 388.401 287.691C388.401 286.869 388.133 286.435 387.767 286.166C387.347 285.857 386.637 285.65 385.567 285.65H383.349V289.689H385.567C386.636 289.689 387.349 289.482 387.772 289.175ZM403.406 275.275H419.833C423.401 275.275 426.372 275.891 428.476 277.335C430.646 278.825 431.764 281.105 431.764 284.077C431.764 285.79 431.431 287.348 430.595 288.667C430.112 289.43 429.481 290.081 428.701 290.626C429.747 291.195 430.634 291.93 431.329 292.844C432.444 294.311 432.998 296.156 432.998 298.314C432.998 302.178 431.285 304.713 428.642 306.219C426.085 307.675 422.735 308.13 419.436 308.13H403.406V275.275ZM427.684 291.234C427.269 291.043 426.826 290.876 426.356 290.733C426.823 290.551 427.247 290.348 427.632 290.123C429.866 288.818 430.764 286.784 430.764 284.077C430.764 278.7 426.797 276.275 419.833 276.275H404.406V307.13H419.436C425.916 307.13 431.998 305.322 431.998 298.314C431.998 294.863 430.463 292.512 427.684 291.234ZM420.461 298.232C420.683 298.042 420.86 297.724 420.86 297.124C420.86 296.524 420.683 296.206 420.461 296.016C420.213 295.804 419.744 295.612 418.907 295.612H415.588V298.636H418.907C419.744 298.636 420.213 298.444 420.461 298.232ZM419.643 286.958C419.85 286.754 419.979 286.451 419.979 286.06C419.979 285.641 419.846 285.344 419.647 285.151C419.45 284.959 419.084 284.768 418.422 284.768H415.588V287.32L418.422 287.353C418.424 287.353 418.426 287.353 418.428 287.353C419.074 287.351 419.441 287.157 419.643 286.958ZM414.588 288.308V283.768H418.422C420.141 283.768 420.979 284.782 420.979 286.06C420.979 287.295 420.141 288.353 418.422 288.353L414.588 288.308ZM436.989 307.13V276.275H447.171V285.091H450.476C457.573 285.091 463.788 287.427 463.788 296.11C463.788 304.749 457.573 307.13 450.476 307.13H436.989ZM448.171 284.091V275.275H435.989V308.13H450.476C454.104 308.13 457.674 307.527 460.359 305.684C462.713 304.069 464.278 301.579 464.683 298.023V308.13H476.865V275.275H464.683V294.19C464.278 290.621 462.714 288.13 460.358 286.519C457.671 284.681 454.102 284.091 450.476 284.091H448.171ZM450.388 294.466H448.171V297.755H450.388C451.176 297.755 451.787 297.588 452.171 297.322C452.503 297.091 452.738 296.742 452.738 296.11C452.738 295.478 452.503 295.129 452.171 294.899C451.787 294.632 451.176 294.466 450.388 294.466ZM475.865 276.275V307.13H465.683V276.275H475.865ZM500.09 308.13V297.873C500.09 297.296 500.096 296.705 500.112 296.099L491.419 308.13H481.313V275.275H493.495V285.487C493.495 286.091 493.489 286.71 493.472 287.343L502.165 275.275H512.272V308.13H500.09ZM492.23 290.777C492.309 290.114 492.366 289.463 492.405 288.823C492.477 287.675 492.495 286.563 492.495 285.487V276.275H482.313V307.13H490.908L501.355 292.672C501.275 293.339 501.219 293.988 501.179 294.623C501.108 295.75 501.09 296.83 501.09 297.873V307.13H511.272V276.275H502.677L492.23 290.777ZM505.969 272.758L505.52 273.055C503.138 274.627 500.298 275.468 496.991 275.468C493.684 275.468 490.844 274.627 488.462 273.055L488.013 272.758V264.134L489.534 265.064C491.718 266.398 494.257 266.945 496.991 266.945C499.682 266.945 502.265 266.397 504.447 265.064L505.969 264.134V272.758ZM504.969 265.917C504.643 266.116 504.309 266.299 503.969 266.466C501.827 267.518 499.425 267.945 496.991 267.945C494.519 267.945 492.146 267.518 490.013 266.467C489.673 266.3 489.34 266.117 489.013 265.917V272.22C491.217 273.675 493.861 274.468 496.991 274.468C500.12 274.468 502.765 273.675 504.969 272.22V265.917ZM385.567 290.689C387.903 290.689 389.401 289.807 389.401 287.691C389.401 285.532 387.903 284.65 385.567 284.65H382.349V290.689H385.567ZM418.907 299.636C420.847 299.636 421.86 298.755 421.86 297.124C421.86 295.493 420.847 294.612 418.907 294.612H414.588V299.636H418.907ZM447.171 293.466V298.755H450.388C452.196 298.755 453.738 298.006 453.738 296.11C453.738 294.215 452.196 293.466 450.388 293.466H447.171Z" fill="#3D68FF"/>
<path opacity="0.34" fill-rule="evenodd" clip-rule="evenodd" d="M51.1379 176.13H39V143.275H69.915V176.13H57.7771V154.179H51.1379V176.13ZM50.1379 175.13H40V144.275H68.915V175.13H58.7771V153.179H50.1379V175.13ZM74.3379 143.275H99.6991V153.297H86.5199V154.868H98.1123V164.361H86.5199V166.019H99.9636V176.13H74.3379V143.275ZM98.9636 167.019V175.13H75.3379V144.275H98.6991V152.297H85.5199V155.868H97.1123V163.361H85.5199V167.019H98.9636ZM103.52 143.275H118.008C122.016 143.275 125.724 143.967 128.451 145.913C131.243 147.904 132.849 151.091 132.849 155.691C132.849 160.271 131.241 163.447 128.45 165.432C125.723 167.371 122.016 168.063 118.008 168.063H115.702V176.13H103.52V143.275ZM114.702 175.13H104.52V144.275H118.008C125.854 144.275 131.849 147.008 131.849 155.691C131.849 164.331 125.854 167.063 118.008 167.063H114.702V175.13ZM120.125 157.175C120.492 156.908 120.755 156.484 120.755 155.691C120.755 154.869 120.487 154.435 120.121 154.166C119.7 153.857 118.99 153.65 117.92 153.65H115.702V157.689H117.92C118.99 157.689 119.703 157.482 120.125 157.175ZM135.759 143.275H152.186C155.754 143.275 158.725 143.891 160.829 145.335C163 146.825 164.118 149.105 164.118 152.077C164.118 153.79 163.785 155.348 162.949 156.667C162.465 157.43 161.834 158.081 161.055 158.626C162.101 159.195 162.988 159.93 163.682 160.844C164.797 162.311 165.352 164.156 165.352 166.314C165.352 170.178 163.638 172.713 160.996 174.219C158.439 175.675 155.089 176.13 151.79 176.13H135.759V143.275ZM160.037 159.234C159.622 159.043 159.179 158.876 158.71 158.733C159.176 158.551 159.601 158.348 159.986 158.123C162.22 156.818 163.118 154.784 163.118 152.077C163.118 146.7 159.151 144.275 152.186 144.275H136.759V175.13H151.79C158.269 175.13 164.352 173.322 164.352 166.314C164.352 162.863 162.817 160.512 160.037 159.234ZM152.815 166.232C153.036 166.042 153.214 165.724 153.214 165.124C153.214 164.524 153.036 164.206 152.815 164.016C152.566 163.804 152.097 163.612 151.261 163.612H147.941V166.636H151.261C152.097 166.636 152.566 166.444 152.815 166.232ZM151.996 154.958C152.203 154.754 152.332 154.451 152.332 154.06C152.332 153.641 152.199 153.344 152.001 153.151C151.804 152.959 151.437 152.768 150.776 152.768H147.941V155.32L150.776 155.353C150.778 155.353 150.779 155.353 150.781 155.353C151.427 155.351 151.794 155.157 151.996 154.958ZM146.941 156.308V151.768H150.776C152.495 151.768 153.332 152.782 153.332 154.06C153.332 155.295 152.495 156.353 150.776 156.353L146.941 156.308ZM169.342 175.13V144.275H179.524V153.091H182.83C189.927 153.091 196.141 155.427 196.141 164.11C196.141 172.749 189.927 175.13 182.83 175.13H169.342ZM180.524 152.091V143.275H168.342V176.13H182.83C186.458 176.13 190.027 175.527 192.713 173.684C195.067 172.069 196.631 169.579 197.037 166.023V176.13H209.219V143.275H197.037V162.19C196.631 158.621 195.067 156.13 192.711 154.519C190.025 152.681 186.455 152.091 182.83 152.091H180.524ZM182.742 162.466H180.524V165.755H182.742C183.53 165.755 184.141 165.588 184.525 165.322C184.857 165.091 185.092 164.742 185.092 164.11C185.092 163.478 184.857 163.129 184.525 162.899C184.141 162.632 183.53 162.466 182.742 162.466ZM208.219 144.275V175.13H198.037V144.275H208.219ZM232.444 176.13V165.873C232.444 165.296 232.449 164.705 232.466 164.099L223.773 176.13H213.666V143.275H225.848V153.487C225.848 154.091 225.843 154.71 225.825 155.343L234.518 143.275H244.626V176.13H232.444ZM224.584 158.777C224.663 158.114 224.719 157.463 224.759 156.823C224.83 155.675 224.848 154.563 224.848 153.487V144.275H214.666V175.13H223.262L233.708 160.672C233.629 161.339 233.572 161.988 233.532 162.623C233.462 163.75 233.444 164.83 233.444 165.873V175.13H243.626V144.275H235.03L224.584 158.777ZM238.322 140.758L237.873 141.055C235.491 142.627 232.651 143.468 229.344 143.468C226.037 143.468 223.197 142.627 220.815 141.055L220.366 140.758V132.134L221.888 133.064C224.071 134.398 226.61 134.945 229.344 134.945C232.036 134.945 234.619 134.397 236.801 133.064L238.322 132.134V140.758ZM237.322 133.917C236.996 134.116 236.663 134.299 236.322 134.466C234.18 135.518 231.779 135.945 229.344 135.945C226.873 135.945 224.5 135.518 222.366 134.467C222.027 134.3 221.693 134.117 221.366 133.917V140.22C223.57 141.675 226.215 142.468 229.344 142.468C232.474 142.468 235.119 141.675 237.322 140.22V133.917ZM117.92 158.689C120.256 158.689 121.755 157.807 121.755 155.691C121.755 153.532 120.256 152.65 117.92 152.65H114.702V158.689H117.92ZM151.261 167.636C153.2 167.636 154.214 166.755 154.214 165.124C154.214 163.493 153.2 162.612 151.261 162.612H146.941V167.636H151.261ZM179.524 161.466V166.755H182.742C184.549 166.755 186.092 166.006 186.092 164.11C186.092 162.215 184.549 161.466 182.742 161.466H179.524Z" fill="#3D68FF"/>
<path opacity="0.34" fill-rule="evenodd" clip-rule="evenodd" d="M261.138 176.13H249V143.275H279.915V176.13H267.777V154.179H261.138V176.13ZM260.138 175.13H250V144.275H278.915V175.13H268.777V153.179H260.138V175.13ZM284.338 143.275H309.699V153.297H296.52V154.868H308.112V164.361H296.52V166.019H309.964V176.13H284.338V143.275ZM308.964 167.019V175.13H285.338V144.275H308.699V152.297H295.52V155.868H307.112V163.361H295.52V167.019H308.964ZM313.52 143.275H328.008C332.016 143.275 335.724 143.967 338.451 145.913C341.243 147.904 342.849 151.091 342.849 155.691C342.849 160.271 341.241 163.447 338.45 165.432C335.723 167.371 332.016 168.063 328.008 168.063H325.702V176.13H313.52V143.275ZM324.702 175.13H314.52V144.275H328.008C335.854 144.275 341.849 147.008 341.849 155.691C341.849 164.331 335.854 167.063 328.008 167.063H324.702V175.13ZM330.125 157.175C330.492 156.908 330.755 156.484 330.755 155.691C330.755 154.869 330.487 154.435 330.121 154.166C329.7 153.857 328.99 153.65 327.92 153.65H325.702V157.689H327.92C328.99 157.689 329.703 157.482 330.125 157.175ZM345.759 143.275H362.186C365.754 143.275 368.725 143.891 370.829 145.335C373 146.825 374.118 149.105 374.118 152.077C374.118 153.79 373.785 155.348 372.949 156.667C372.465 157.43 371.834 158.081 371.055 158.626C372.101 159.195 372.988 159.93 373.682 160.844C374.797 162.311 375.352 164.156 375.352 166.314C375.352 170.178 373.638 172.713 370.996 174.219C368.439 175.675 365.089 176.13 361.79 176.13H345.759V143.275ZM370.037 159.234C369.622 159.043 369.179 158.876 368.71 158.733C369.176 158.551 369.601 158.348 369.986 158.123C372.22 156.818 373.118 154.784 373.118 152.077C373.118 146.7 369.151 144.275 362.186 144.275H346.759V175.13H361.79C368.269 175.13 374.352 173.322 374.352 166.314C374.352 162.863 372.817 160.512 370.037 159.234ZM362.815 166.232C363.036 166.042 363.214 165.724 363.214 165.124C363.214 164.524 363.036 164.206 362.815 164.016C362.566 163.804 362.097 163.612 361.261 163.612H357.941V166.636H361.261C362.097 166.636 362.566 166.444 362.815 166.232ZM361.996 154.958C362.203 154.754 362.332 154.451 362.332 154.06C362.332 153.641 362.199 153.344 362.001 153.151C361.804 152.959 361.437 152.768 360.776 152.768H357.941V155.32L360.776 155.353C360.778 155.353 360.779 155.353 360.781 155.353C361.427 155.351 361.794 155.157 361.996 154.958ZM356.941 156.308V151.768H360.776C362.495 151.768 363.332 152.782 363.332 154.06C363.332 155.295 362.495 156.353 360.776 156.353L356.941 156.308ZM379.342 175.13V144.275H389.524V153.091H392.83C399.927 153.091 406.141 155.427 406.141 164.11C406.141 172.749 399.927 175.13 392.83 175.13H379.342ZM390.524 152.091V143.275H378.342V176.13H392.83C396.458 176.13 400.027 175.527 402.713 173.684C405.067 172.069 406.631 169.579 407.037 166.023V176.13H419.219V143.275H407.037V162.19C406.631 158.621 405.067 156.13 402.711 154.519C400.025 152.681 396.455 152.091 392.83 152.091H390.524ZM392.742 162.466H390.524V165.755H392.742C393.53 165.755 394.141 165.588 394.525 165.322C394.857 165.091 395.092 164.742 395.092 164.11C395.092 163.478 394.857 163.129 394.525 162.899C394.141 162.632 393.53 162.466 392.742 162.466ZM418.219 144.275V175.13H408.037V144.275H418.219ZM442.444 176.13V165.873C442.444 165.296 442.449 164.705 442.466 164.099L433.773 176.13H423.666V143.275H435.848V153.487C435.848 154.091 435.843 154.71 435.825 155.343L444.518 143.275H454.626V176.13H442.444ZM434.584 158.777C434.663 158.114 434.719 157.463 434.759 156.823C434.83 155.675 434.848 154.563 434.848 153.487V144.275H424.666V175.13H433.262L443.708 160.672C443.629 161.339 443.572 161.988 443.532 162.623C443.462 163.75 443.444 164.83 443.444 165.873V175.13H453.626V144.275H445.03L434.584 158.777ZM448.322 140.758L447.873 141.055C445.491 142.627 442.651 143.468 439.344 143.468C436.037 143.468 433.197 142.627 430.815 141.055L430.366 140.758V132.134L431.888 133.064C434.071 134.398 436.61 134.945 439.344 134.945C442.036 134.945 444.619 134.397 446.801 133.064L448.322 132.134V140.758ZM447.322 133.917C446.996 134.116 446.663 134.299 446.322 134.466C444.18 135.518 441.779 135.945 439.344 135.945C436.873 135.945 434.5 135.518 432.366 134.467C432.027 134.3 431.693 134.117 431.366 133.917V140.22C433.57 141.675 436.215 142.468 439.344 142.468C442.474 142.468 445.119 141.675 447.322 140.22V133.917ZM327.92 158.689C330.256 158.689 331.755 157.807 331.755 155.691C331.755 153.532 330.256 152.65 327.92 152.65H324.702V158.689H327.92ZM361.261 167.636C363.2 167.636 364.214 166.755 364.214 165.124C364.214 163.493 363.2 162.612 361.261 162.612H356.941V167.636H361.261ZM389.524 161.466V166.755H392.742C394.549 166.755 396.092 166.006 396.092 164.11C396.092 162.215 394.549 161.466 392.742 161.466H389.524Z" fill="#3D68FF"/>
<path opacity="0.34" fill-rule="evenodd" clip-rule="evenodd" d="M70.1379 88.1296H58V55.2752H88.915V88.1296H76.7771V66.1789H70.1379V88.1296ZM69.1379 87.1296H59V56.2752H87.915V87.1296H77.7771V65.1789H69.1379V87.1296ZM93.3379 55.2752H118.699V65.2974H105.52V66.8677H117.112V76.3609H105.52V78.0193H118.964V88.1296H93.3379V55.2752ZM117.964 79.0193V87.1296H94.3379V56.2752H117.699V64.2974H104.52V67.8677H116.112V75.3609H104.52V79.0193H117.964ZM122.52 55.2752H137.008C141.016 55.2752 144.724 55.9674 147.451 57.913C150.243 59.904 151.849 63.0915 151.849 67.6914C151.849 72.2711 150.241 75.4473 147.45 77.432C144.723 79.3712 141.016 80.0634 137.008 80.0634H134.702V88.1296H122.52V55.2752ZM133.702 87.1296H123.52V56.2752H137.008C144.854 56.2752 150.849 59.008 150.849 67.6914C150.849 76.3306 144.854 79.0634 137.008 79.0634H133.702V87.1296ZM139.125 69.1747C139.492 68.9079 139.755 68.4839 139.755 67.6914C139.755 66.8694 139.487 66.4353 139.121 66.1663C138.7 65.8567 137.99 65.65 136.92 65.65H134.702V69.6886H136.92C137.99 69.6886 138.703 69.4821 139.125 69.1747ZM154.759 55.2752H171.186C174.754 55.2752 177.725 55.8909 179.829 57.3351C182 58.8247 183.118 61.1051 183.118 64.077C183.118 65.7897 182.785 67.3479 181.949 68.6674C181.465 69.4297 180.834 70.0809 180.055 70.6256C181.101 71.1945 181.988 71.9299 182.682 72.844C183.797 74.3114 184.352 76.1556 184.352 78.3141C184.352 82.1778 182.638 84.7133 179.996 86.2189C177.439 87.6755 174.089 88.1296 170.79 88.1296H154.759V55.2752ZM179.037 71.2338C178.622 71.0429 178.179 70.8759 177.71 70.7327C178.176 70.5513 178.601 70.348 178.986 70.123C181.22 68.8176 182.118 66.7841 182.118 64.077C182.118 58.6995 178.151 56.2752 171.186 56.2752H155.759V87.1296H170.79C177.269 87.1296 183.352 85.3224 183.352 78.3141C183.352 74.8626 181.817 72.5121 179.037 71.2338ZM171.815 78.2319C172.036 78.0424 172.214 77.7237 172.214 77.124C172.214 76.5242 172.036 76.2056 171.815 76.016C171.566 75.8037 171.097 75.6116 170.261 75.6116H166.941V78.6364H170.261C171.097 78.6364 171.566 78.4443 171.815 78.2319ZM170.996 66.9576C171.203 66.7535 171.332 66.4508 171.332 66.0605C171.332 65.6413 171.199 65.3443 171.001 65.1515C170.804 64.9595 170.437 64.7684 169.776 64.7684H166.941V67.3199L169.776 67.3525C169.778 67.3525 169.779 67.3525 169.781 67.3525C170.427 67.3514 170.794 67.157 170.996 66.9576ZM165.941 68.3084V63.7684H169.776C171.495 63.7684 172.332 64.7822 172.332 66.0605C172.332 67.2947 171.495 68.3525 169.776 68.3525L165.941 68.3084ZM188.342 87.1296V56.2752H198.524V65.0908H201.83C208.927 65.0908 215.141 67.4269 215.141 76.1102C215.141 84.7494 208.927 87.1296 201.83 87.1296H188.342ZM199.524 64.0908V55.2752H187.342V88.1296H201.83C205.458 88.1296 209.027 87.5271 211.713 85.6841C214.067 84.0689 215.631 81.5788 216.037 78.0225V88.1296H228.219V55.2752H216.037V74.1896C215.631 70.6207 214.067 68.13 211.711 66.5188C209.025 64.6813 205.455 64.0908 201.83 64.0908H199.524ZM201.742 74.4655H199.524V77.7549H201.742C202.53 77.7549 203.141 77.588 203.525 77.3216C203.857 77.091 204.092 76.7421 204.092 76.1102C204.092 75.4783 203.857 75.1294 203.525 74.8988C203.141 74.6324 202.53 74.4655 201.742 74.4655ZM227.219 56.2752V87.1296H217.037V56.2752H227.219ZM251.444 88.1296V77.8733C251.444 77.2963 251.449 76.7052 251.466 76.0988L242.773 88.1296H232.666V55.2752H244.848V65.4875C244.848 66.0913 244.843 66.71 244.825 67.3429L253.518 55.2752H263.626V88.1296H251.444ZM243.584 70.7768C243.663 70.1143 243.719 69.463 243.759 68.8231C243.83 67.6749 243.848 66.563 243.848 65.4875V56.2752H233.666V87.1296H242.262L252.708 72.6721C252.629 73.3388 252.572 73.9883 252.532 74.6227C252.462 75.75 252.444 76.8297 252.444 77.8733V87.1296H262.626V56.2752H254.03L243.584 70.7768ZM257.322 52.7582L256.873 53.0547C254.491 54.6268 251.651 55.468 248.344 55.468C245.037 55.468 242.197 54.6268 239.815 53.0547L239.366 52.7582V44.1339L240.888 45.0637C243.071 46.3979 245.61 46.9445 248.344 46.9445C251.036 46.9445 253.619 46.3973 255.801 45.0637L257.322 44.1339V52.7582ZM256.322 45.917C255.996 46.1163 255.663 46.2991 255.322 46.4661C253.18 47.5178 250.779 47.9445 248.344 47.9445C245.873 47.9445 243.5 47.5181 241.366 46.4672C241.027 46.2999 240.693 46.1167 240.366 45.917V52.2201C242.57 53.6746 245.215 54.468 248.344 54.468C251.474 54.468 254.119 53.6746 256.322 52.2201V45.917ZM136.92 70.6886C139.256 70.6886 140.755 69.8071 140.755 67.6914C140.755 65.5315 139.256 64.65 136.92 64.65H133.702V70.6886H136.92ZM170.261 79.6364C172.2 79.6364 173.214 78.7549 173.214 77.124C173.214 75.4931 172.2 74.6116 170.261 74.6116H165.941V79.6364H170.261ZM198.524 73.4655V78.7549H201.742C203.549 78.7549 205.092 78.0055 205.092 76.1102C205.092 74.2149 203.549 73.4655 201.742 73.4655H198.524Z" fill="#3D68FF"/>
<path opacity="0.34" fill-rule="evenodd" clip-rule="evenodd" d="M282.138 88.1296H270V55.2752H300.915V88.1296H288.777V66.1789H282.138V88.1296ZM281.138 87.1296H271V56.2752H299.915V87.1296H289.777V65.1789H281.138V87.1296ZM305.338 55.2752H330.699V65.2974H317.52V66.8677H329.112V76.3609H317.52V78.0193H330.964V88.1296H305.338V55.2752ZM329.964 79.0193V87.1296H306.338V56.2752H329.699V64.2974H316.52V67.8677H328.112V75.3609H316.52V79.0193H329.964ZM334.52 55.2752H349.008C353.016 55.2752 356.724 55.9674 359.451 57.913C362.243 59.904 363.849 63.0915 363.849 67.6914C363.849 72.2711 362.241 75.4473 359.45 77.432C356.723 79.3712 353.016 80.0634 349.008 80.0634H346.702V88.1296H334.52V55.2752ZM345.702 87.1296H335.52V56.2752H349.008C356.854 56.2752 362.849 59.008 362.849 67.6914C362.849 76.3306 356.854 79.0634 349.008 79.0634H345.702V87.1296ZM351.125 69.1747C351.492 68.9079 351.755 68.4839 351.755 67.6914C351.755 66.8694 351.487 66.4353 351.121 66.1663C350.7 65.8567 349.99 65.65 348.92 65.65H346.702V69.6886H348.92C349.99 69.6886 350.703 69.4821 351.125 69.1747ZM366.759 55.2752H383.186C386.754 55.2752 389.725 55.8909 391.829 57.3351C394 58.8247 395.118 61.1051 395.118 64.077C395.118 65.7897 394.785 67.3479 393.949 68.6674C393.465 69.4297 392.834 70.0809 392.055 70.6256C393.101 71.1945 393.988 71.9299 394.682 72.844C395.797 74.3114 396.352 76.1556 396.352 78.3141C396.352 82.1778 394.638 84.7133 391.996 86.2189C389.439 87.6755 386.089 88.1296 382.79 88.1296H366.759V55.2752ZM391.037 71.2338C390.622 71.0429 390.179 70.8759 389.71 70.7327C390.176 70.5513 390.601 70.348 390.986 70.123C393.22 68.8176 394.118 66.7841 394.118 64.077C394.118 58.6995 390.151 56.2752 383.186 56.2752H367.759V87.1296H382.79C389.269 87.1296 395.352 85.3224 395.352 78.3141C395.352 74.8626 393.817 72.5121 391.037 71.2338ZM383.815 78.2319C384.036 78.0424 384.214 77.7237 384.214 77.124C384.214 76.5242 384.036 76.2056 383.815 76.016C383.566 75.8037 383.097 75.6116 382.261 75.6116H378.941V78.6364H382.261C383.097 78.6364 383.566 78.4443 383.815 78.2319ZM382.996 66.9576C383.203 66.7535 383.332 66.4508 383.332 66.0605C383.332 65.6413 383.199 65.3443 383.001 65.1515C382.804 64.9595 382.437 64.7684 381.776 64.7684H378.941V67.3199L381.776 67.3525C381.778 67.3525 381.779 67.3525 381.781 67.3525C382.427 67.3514 382.794 67.157 382.996 66.9576ZM377.941 68.3084V63.7684H381.776C383.495 63.7684 384.332 64.7822 384.332 66.0605C384.332 67.2947 383.495 68.3525 381.776 68.3525L377.941 68.3084ZM400.342 87.1296V56.2752H410.524V65.0908H413.83C420.927 65.0908 427.141 67.4269 427.141 76.1102C427.141 84.7494 420.927 87.1296 413.83 87.1296H400.342ZM411.524 64.0908V55.2752H399.342V88.1296H413.83C417.458 88.1296 421.027 87.5271 423.713 85.6841C426.067 84.0689 427.631 81.5788 428.037 78.0225V88.1296H440.219V55.2752H428.037V74.1896C427.631 70.6207 426.067 68.13 423.711 66.5188C421.025 64.6813 417.455 64.0908 413.83 64.0908H411.524ZM413.742 74.4655H411.524V77.7549H413.742C414.53 77.7549 415.141 77.588 415.525 77.3216C415.857 77.091 416.092 76.7421 416.092 76.1102C416.092 75.4783 415.857 75.1294 415.525 74.8988C415.141 74.6324 414.53 74.4655 413.742 74.4655ZM439.219 56.2752V87.1296H429.037V56.2752H439.219ZM463.444 88.1296V77.8733C463.444 77.2963 463.449 76.7052 463.466 76.0988L454.773 88.1296H444.666V55.2752H456.848V65.4875C456.848 66.0913 456.843 66.71 456.825 67.3429L465.518 55.2752H475.626V88.1296H463.444ZM455.584 70.7768C455.663 70.1143 455.719 69.463 455.759 68.8231C455.83 67.6749 455.848 66.563 455.848 65.4875V56.2752H445.666V87.1296H454.262L464.708 72.6721C464.629 73.3388 464.572 73.9883 464.532 74.6227C464.462 75.75 464.444 76.8297 464.444 77.8733V87.1296H474.626V56.2752H466.03L455.584 70.7768ZM469.322 52.7582L468.873 53.0547C466.491 54.6268 463.651 55.468 460.344 55.468C457.037 55.468 454.197 54.6268 451.815 53.0547L451.366 52.7582V44.1339L452.888 45.0637C455.071 46.3979 457.61 46.9445 460.344 46.9445C463.036 46.9445 465.619 46.3973 467.801 45.0637L469.322 44.1339V52.7582ZM468.322 45.917C467.996 46.1163 467.663 46.2991 467.322 46.4661C465.18 47.5178 462.779 47.9445 460.344 47.9445C457.873 47.9445 455.5 47.5181 453.366 46.4672C453.027 46.2999 452.693 46.1167 452.366 45.917V52.2201C454.57 53.6746 457.215 54.468 460.344 54.468C463.474 54.468 466.119 53.6746 468.322 52.2201V45.917ZM348.92 70.6886C351.256 70.6886 352.755 69.8071 352.755 67.6914C352.755 65.5315 351.256 64.65 348.92 64.65H345.702V70.6886H348.92ZM382.261 79.6364C384.2 79.6364 385.214 78.7549 385.214 77.124C385.214 75.4931 384.2 74.6116 382.261 74.6116H377.941V79.6364H382.261ZM410.524 73.4655V78.7549H413.742C415.549 78.7549 417.092 78.0055 417.092 76.1102C417.092 74.2149 415.549 73.4655 413.742 73.4655H410.524Z" fill="#3D68FF"/>
<path opacity="0.34" fill-rule="evenodd" clip-rule="evenodd" d="M70.1379 352.13H58V319.275H88.915V352.13H76.7771V330.179H70.1379V352.13ZM69.1379 351.13H59V320.275H87.915V351.13H77.7771V329.179H69.1379V351.13ZM93.3379 319.275H118.699V329.297H105.52V330.868H117.112V340.361H105.52V342.019H118.964V352.13H93.3379V319.275ZM117.964 343.019V351.13H94.3379V320.275H117.699V328.297H104.52V331.868H116.112V339.361H104.52V343.019H117.964ZM122.52 319.275H137.008C141.016 319.275 144.724 319.967 147.451 321.913C150.243 323.904 151.849 327.091 151.849 331.691C151.849 336.271 150.241 339.447 147.45 341.432C144.723 343.371 141.016 344.063 137.008 344.063H134.702V352.13H122.52V319.275ZM133.702 351.13H123.52V320.275H137.008C144.854 320.275 150.849 323.008 150.849 331.691C150.849 340.331 144.854 343.063 137.008 343.063H133.702V351.13ZM139.125 333.175C139.492 332.908 139.755 332.484 139.755 331.691C139.755 330.869 139.487 330.435 139.121 330.166C138.7 329.857 137.99 329.65 136.92 329.65H134.702V333.689H136.92C137.99 333.689 138.703 333.482 139.125 333.175ZM154.759 319.275H171.186C174.754 319.275 177.725 319.891 179.829 321.335C182 322.825 183.118 325.105 183.118 328.077C183.118 329.79 182.785 331.348 181.949 332.667C181.465 333.43 180.834 334.081 180.055 334.626C181.101 335.195 181.988 335.93 182.682 336.844C183.797 338.311 184.352 340.156 184.352 342.314C184.352 346.178 182.638 348.713 179.996 350.219C177.439 351.675 174.089 352.13 170.79 352.13H154.759V319.275ZM179.037 335.234C178.622 335.043 178.179 334.876 177.71 334.733C178.176 334.551 178.601 334.348 178.986 334.123C181.22 332.818 182.118 330.784 182.118 328.077C182.118 322.7 178.151 320.275 171.186 320.275H155.759V351.13H170.79C177.269 351.13 183.352 349.322 183.352 342.314C183.352 338.863 181.817 336.512 179.037 335.234ZM171.815 342.232C172.036 342.042 172.214 341.724 172.214 341.124C172.214 340.524 172.036 340.206 171.815 340.016C171.566 339.804 171.097 339.612 170.261 339.612H166.941V342.636H170.261C171.097 342.636 171.566 342.444 171.815 342.232ZM170.996 330.958C171.203 330.754 171.332 330.451 171.332 330.06C171.332 329.641 171.199 329.344 171.001 329.151C170.804 328.959 170.437 328.768 169.776 328.768H166.941V331.32L169.776 331.353C169.778 331.353 169.779 331.353 169.781 331.353C170.427 331.351 170.794 331.157 170.996 330.958ZM165.941 332.308V327.768H169.776C171.495 327.768 172.332 328.782 172.332 330.06C172.332 331.295 171.495 332.353 169.776 332.353L165.941 332.308ZM188.342 351.13V320.275H198.524V329.091H201.83C208.927 329.091 215.141 331.427 215.141 340.11C215.141 348.749 208.927 351.13 201.83 351.13H188.342ZM199.524 328.091V319.275H187.342V352.13H201.83C205.458 352.13 209.027 351.527 211.713 349.684C214.067 348.069 215.631 345.579 216.037 342.023V352.13H228.219V319.275H216.037V338.19C215.631 334.621 214.067 332.13 211.711 330.519C209.025 328.681 205.455 328.091 201.83 328.091H199.524ZM201.742 338.466H199.524V341.755H201.742C202.53 341.755 203.141 341.588 203.525 341.322C203.857 341.091 204.092 340.742 204.092 340.11C204.092 339.478 203.857 339.129 203.525 338.899C203.141 338.632 202.53 338.466 201.742 338.466ZM227.219 320.275V351.13H217.037V320.275H227.219ZM251.444 352.13V341.873C251.444 341.296 251.449 340.705 251.466 340.099L242.773 352.13H232.666V319.275H244.848V329.487C244.848 330.091 244.843 330.71 244.825 331.343L253.518 319.275H263.626V352.13H251.444ZM243.584 334.777C243.663 334.114 243.719 333.463 243.759 332.823C243.83 331.675 243.848 330.563 243.848 329.487V320.275H233.666V351.13H242.262L252.708 336.672C252.629 337.339 252.572 337.988 252.532 338.623C252.462 339.75 252.444 340.83 252.444 341.873V351.13H262.626V320.275H254.03L243.584 334.777ZM257.322 316.758L256.873 317.055C254.491 318.627 251.651 319.468 248.344 319.468C245.037 319.468 242.197 318.627 239.815 317.055L239.366 316.758V308.134L240.888 309.064C243.071 310.398 245.61 310.945 248.344 310.945C251.036 310.945 253.619 310.397 255.801 309.064L257.322 308.134V316.758ZM256.322 309.917C255.996 310.116 255.663 310.299 255.322 310.466C253.18 311.518 250.779 311.945 248.344 311.945C245.873 311.945 243.5 311.518 241.366 310.467C241.027 310.3 240.693 310.117 240.366 309.917V316.22C242.57 317.675 245.215 318.468 248.344 318.468C251.474 318.468 254.119 317.675 256.322 316.22V309.917ZM136.92 334.689C139.256 334.689 140.755 333.807 140.755 331.691C140.755 329.532 139.256 328.65 136.92 328.65H133.702V334.689H136.92ZM170.261 343.636C172.2 343.636 173.214 342.755 173.214 341.124C173.214 339.493 172.2 338.612 170.261 338.612H165.941V343.636H170.261ZM198.524 337.466V342.755H201.742C203.549 342.755 205.092 342.006 205.092 340.11C205.092 338.215 203.549 337.466 201.742 337.466H198.524Z" fill="#3D68FF"/>
<path opacity="0.34" fill-rule="evenodd" clip-rule="evenodd" d="M280.784 352.13H268.646V319.275H299.561V352.13H287.424V330.179H280.784V352.13ZM279.784 351.13H269.646V320.275H298.561V351.13H288.424V329.179H279.784V351.13ZM303.984 319.275H329.346V329.297H316.166V330.868H327.759V340.361H316.166V342.019H329.61V352.13H303.984V319.275ZM328.61 343.019V351.13H304.984V320.275H328.346V328.297H315.166V331.868H326.759V339.361H315.166V343.019H328.61ZM333.167 319.275H347.655C351.662 319.275 355.37 319.967 358.098 321.913C360.889 323.904 362.495 327.091 362.495 331.691C362.495 336.271 360.888 339.447 358.097 341.432C355.37 343.371 351.662 344.063 347.655 344.063H345.349V352.13H333.167V319.275ZM344.349 351.13H334.167V320.275H347.655C355.501 320.275 361.495 323.008 361.495 331.691C361.495 340.331 355.501 343.063 347.655 343.063H344.349V351.13ZM349.772 333.175C350.139 332.908 350.401 332.484 350.401 331.691C350.401 330.869 350.133 330.435 349.767 330.166C349.347 329.857 348.637 329.65 347.567 329.65H345.349V333.689H347.567C348.636 333.689 349.349 333.482 349.772 333.175ZM365.406 319.275H381.833C385.401 319.275 388.372 319.891 390.476 321.335C392.646 322.825 393.764 325.105 393.764 328.077C393.764 329.79 393.431 331.348 392.595 332.667C392.112 333.43 391.481 334.081 390.701 334.626C391.747 335.195 392.634 335.93 393.329 336.844C394.444 338.311 394.998 340.156 394.998 342.314C394.998 346.178 393.285 348.713 390.642 350.219C388.085 351.675 384.735 352.13 381.436 352.13H365.406V319.275ZM389.684 335.234C389.269 335.043 388.826 334.876 388.356 334.733C388.823 334.551 389.247 334.348 389.632 334.123C391.866 332.818 392.764 330.784 392.764 328.077C392.764 322.7 388.797 320.275 381.833 320.275H366.406V351.13H381.436C387.916 351.13 393.998 349.322 393.998 342.314C393.998 338.863 392.463 336.512 389.684 335.234ZM382.461 342.232C382.683 342.042 382.86 341.724 382.86 341.124C382.86 340.524 382.683 340.206 382.461 340.016C382.213 339.804 381.744 339.612 380.907 339.612H377.588V342.636H380.907C381.744 342.636 382.213 342.444 382.461 342.232ZM381.643 330.958C381.85 330.754 381.979 330.451 381.979 330.06C381.979 329.641 381.846 329.344 381.647 329.151C381.45 328.959 381.084 328.768 380.422 328.768H377.588V331.32L380.422 331.353C380.424 331.353 380.426 331.353 380.428 331.353C381.074 331.351 381.441 331.157 381.643 330.958ZM376.588 332.308V327.768H380.422C382.141 327.768 382.979 328.782 382.979 330.06C382.979 331.295 382.141 332.353 380.422 332.353L376.588 332.308ZM398.989 351.13V320.275H409.171V329.091H412.476C419.573 329.091 425.788 331.427 425.788 340.11C425.788 348.749 419.573 351.13 412.476 351.13H398.989ZM410.171 328.091V319.275H397.989V352.13H412.476C416.104 352.13 419.674 351.527 422.359 349.684C424.713 348.069 426.278 345.579 426.683 342.023V352.13H438.865V319.275H426.683V338.19C426.278 334.621 424.714 332.13 422.358 330.519C419.671 328.681 416.102 328.091 412.476 328.091H410.171ZM412.388 338.466H410.171V341.755H412.388C413.176 341.755 413.787 341.588 414.171 341.322C414.503 341.091 414.738 340.742 414.738 340.11C414.738 339.478 414.503 339.129 414.171 338.899C413.787 338.632 413.176 338.466 412.388 338.466ZM437.865 320.275V351.13H427.683V320.275H437.865ZM462.09 352.13V341.873C462.09 341.296 462.096 340.705 462.112 340.099L453.419 352.13H443.313V319.275H455.495V329.487C455.495 330.091 455.489 330.71 455.472 331.343L464.165 319.275H474.272V352.13H462.09ZM454.23 334.777C454.309 334.114 454.366 333.463 454.405 332.823C454.477 331.675 454.495 330.563 454.495 329.487V320.275H444.313V351.13H452.908L463.355 336.672C463.275 337.339 463.219 337.988 463.179 338.623C463.108 339.75 463.09 340.83 463.09 341.873V351.13H473.272V320.275H464.677L454.23 334.777ZM467.969 316.758L467.52 317.055C465.138 318.627 462.298 319.468 458.991 319.468C455.684 319.468 452.844 318.627 450.462 317.055L450.013 316.758V308.134L451.534 309.064C453.718 310.398 456.257 310.945 458.991 310.945C461.682 310.945 464.265 310.397 466.447 309.064L467.969 308.134V316.758ZM466.969 309.917C466.643 310.116 466.309 310.299 465.969 310.466C463.827 311.518 461.425 311.945 458.991 311.945C456.519 311.945 454.146 311.518 452.013 310.467C451.673 310.3 451.34 310.117 451.013 309.917V316.22C453.217 317.675 455.861 318.468 458.991 318.468C462.12 318.468 464.765 317.675 466.969 316.22V309.917ZM347.567 334.689C349.903 334.689 351.401 333.807 351.401 331.691C351.401 329.532 349.903 328.65 347.567 328.65H344.349V334.689H347.567ZM380.907 343.636C382.847 343.636 383.86 342.755 383.86 341.124C383.86 339.493 382.847 338.612 380.907 338.612H376.588V343.636H380.907ZM409.171 337.466V342.755H412.388C414.196 342.755 415.738 342.006 415.738 340.11C415.738 338.215 414.196 337.466 412.388 337.466H409.171Z" fill="#3D68FF"/>
<path opacity="0.34" fill-rule="evenodd" clip-rule="evenodd" d="M12.1379 220.13H0V187.275H30.915V220.13H18.7771V198.179H12.1379V220.13ZM11.1379 219.13H1V188.275H29.915V219.13H19.7771V197.179H11.1379V219.13ZM35.3379 187.275H60.6991V197.297H47.5199V198.868H59.1123V208.361H47.5199V210.019H60.9636V220.13H35.3379V187.275ZM59.9636 211.019V219.13H36.3379V188.275H59.6991V196.297H46.5199V199.868H58.1123V207.361H46.5199V211.019H59.9636ZM64.5205 187.275H79.0082C83.0158 187.275 86.7239 187.967 89.4513 189.913C92.2426 191.904 93.8486 195.091 93.8486 199.691C93.8486 204.271 92.2412 207.447 89.4501 209.432C86.7232 211.371 83.0158 212.063 79.0082 212.063H76.7024V220.13H64.5205V187.275ZM75.7024 219.13H65.5205V188.275H79.0082C86.8541 188.275 92.8486 191.008 92.8486 199.691C92.8486 208.331 86.8541 211.063 79.0082 211.063H75.7024V219.13ZM81.1253 201.175C81.4921 200.908 81.7548 200.484 81.7548 199.691C81.7548 198.869 81.4866 198.435 81.121 198.166C80.7 197.857 79.9901 197.65 78.9201 197.65H76.7024V201.689H78.9201C79.9897 201.689 80.7026 201.482 81.1253 201.175ZM96.7592 187.275H113.186C116.754 187.275 119.725 187.891 121.829 189.335C124 190.825 125.118 193.105 125.118 196.077C125.118 197.79 124.785 199.348 123.949 200.667C123.465 201.43 122.834 202.081 122.055 202.626C123.101 203.195 123.988 203.93 124.682 204.844C125.797 206.311 126.352 208.156 126.352 210.314C126.352 214.178 124.638 216.713 121.996 218.219C119.439 219.675 116.089 220.13 112.79 220.13H96.7592V187.275ZM121.037 203.234C120.622 203.043 120.179 202.876 119.71 202.733C120.176 202.551 120.601 202.348 120.986 202.123C123.22 200.818 124.118 198.784 124.118 196.077C124.118 190.7 120.151 188.275 113.186 188.275H97.7592V219.13H112.79C119.269 219.13 125.352 217.322 125.352 210.314C125.352 206.863 123.817 204.512 121.037 203.234ZM113.815 210.232C114.036 210.042 114.214 209.724 114.214 209.124C114.214 208.524 114.036 208.206 113.815 208.016C113.566 207.804 113.097 207.612 112.261 207.612H108.941V210.636H112.261C113.097 210.636 113.566 210.444 113.815 210.232ZM112.996 198.958C113.203 198.754 113.332 198.451 113.332 198.06C113.332 197.641 113.199 197.344 113.001 197.151C112.804 196.959 112.437 196.768 111.776 196.768H108.941V199.32L111.776 199.353C111.778 199.353 111.779 199.353 111.781 199.353C112.427 199.351 112.794 199.157 112.996 198.958ZM107.941 200.308V195.768H111.776C113.495 195.768 114.332 196.782 114.332 198.06C114.332 199.295 113.495 200.353 111.776 200.353L107.941 200.308ZM130.342 219.13V188.275H140.524V197.091H143.83C150.927 197.091 157.141 199.427 157.141 208.11C157.141 216.749 150.927 219.13 143.83 219.13H130.342ZM141.524 196.091V187.275H129.342V220.13H143.83C147.458 220.13 151.027 219.527 153.713 217.684C156.067 216.069 157.631 213.579 158.037 210.023V220.13H170.219V187.275H158.037V206.19C157.631 202.621 156.067 200.13 153.711 198.519C151.025 196.681 147.455 196.091 143.83 196.091H141.524ZM143.742 206.466H141.524V209.755H143.742C144.53 209.755 145.141 209.588 145.525 209.322C145.857 209.091 146.092 208.742 146.092 208.11C146.092 207.478 145.857 207.129 145.525 206.899C145.141 206.632 144.53 206.466 143.742 206.466ZM169.219 188.275V219.13H159.037V188.275H169.219ZM193.444 220.13V209.873C193.444 209.296 193.449 208.705 193.466 208.099L184.773 220.13H174.666V187.275H186.848V197.487C186.848 198.091 186.843 198.71 186.825 199.343L195.518 187.275H205.626V220.13H193.444ZM185.584 202.777C185.663 202.114 185.719 201.463 185.759 200.823C185.83 199.675 185.848 198.563 185.848 197.487V188.275H175.666V219.13H184.262L194.708 204.672C194.629 205.339 194.572 205.988 194.532 206.623C194.462 207.75 194.444 208.83 194.444 209.873V219.13H204.626V188.275H196.03L185.584 202.777ZM199.322 184.758L198.873 185.055C196.491 186.627 193.651 187.468 190.344 187.468C187.037 187.468 184.197 186.627 181.815 185.055L181.366 184.758V176.134L182.888 177.064C185.071 178.398 187.61 178.945 190.344 178.945C193.036 178.945 195.619 178.397 197.801 177.064L199.322 176.134V184.758ZM198.322 177.917C197.996 178.116 197.663 178.299 197.322 178.466C195.18 179.518 192.779 179.945 190.344 179.945C187.873 179.945 185.5 179.518 183.366 178.467C183.027 178.3 182.693 178.117 182.366 177.917V184.22C184.57 185.675 187.215 186.468 190.344 186.468C193.474 186.468 196.119 185.675 198.322 184.22V177.917ZM78.9201 202.689C81.2562 202.689 82.7548 201.807 82.7548 199.691C82.7548 197.532 81.2562 196.65 78.9201 196.65H75.7024V202.689H78.9201ZM112.261 211.636C114.2 211.636 115.214 210.755 115.214 209.124C115.214 207.493 114.2 206.612 112.261 206.612H107.941V211.636H112.261ZM140.524 205.466V210.755H143.742C145.549 210.755 147.092 210.006 147.092 208.11C147.092 206.215 145.549 205.466 143.742 205.466H140.524Z" fill="#3D68FF"/>
<path opacity="0.34" fill-rule="evenodd" clip-rule="evenodd" d="M221.784 220.13H209.646V187.275H240.561V220.13H228.424V198.179H221.784V220.13ZM220.784 219.13H210.646V188.275H239.561V219.13H229.424V197.179H220.784V219.13ZM244.984 187.275H270.346V197.297H257.166V198.868H268.759V208.361H257.166V210.019H270.61V220.13H244.984V187.275ZM269.61 211.019V219.13H245.984V188.275H269.346V196.297H256.166V199.868H267.759V207.361H256.166V211.019H269.61ZM274.167 187.275H288.655C292.662 187.275 296.37 187.967 299.098 189.913C301.889 191.904 303.495 195.091 303.495 199.691C303.495 204.271 301.888 207.447 299.097 209.432C296.37 211.371 292.662 212.063 288.655 212.063H286.349V220.13H274.167V187.275ZM285.349 219.13H275.167V188.275H288.655C296.501 188.275 302.495 191.008 302.495 199.691C302.495 208.331 296.501 211.063 288.655 211.063H285.349V219.13ZM290.772 201.175C291.139 200.908 291.401 200.484 291.401 199.691C291.401 198.869 291.133 198.435 290.767 198.166C290.347 197.857 289.637 197.65 288.567 197.65H286.349V201.689H288.567C289.636 201.689 290.349 201.482 290.772 201.175ZM306.406 187.275H322.833C326.401 187.275 329.372 187.891 331.476 189.335C333.646 190.825 334.764 193.105 334.764 196.077C334.764 197.79 334.431 199.348 333.595 200.667C333.112 201.43 332.481 202.081 331.701 202.626C332.747 203.195 333.634 203.93 334.329 204.844C335.444 206.311 335.998 208.156 335.998 210.314C335.998 214.178 334.285 216.713 331.642 218.219C329.085 219.675 325.735 220.13 322.436 220.13H306.406V187.275ZM330.684 203.234C330.269 203.043 329.826 202.876 329.356 202.733C329.823 202.551 330.247 202.348 330.632 202.123C332.866 200.818 333.764 198.784 333.764 196.077C333.764 190.7 329.797 188.275 322.833 188.275H307.406V219.13H322.436C328.916 219.13 334.998 217.322 334.998 210.314C334.998 206.863 333.463 204.512 330.684 203.234ZM323.461 210.232C323.683 210.042 323.86 209.724 323.86 209.124C323.86 208.524 323.683 208.206 323.461 208.016C323.213 207.804 322.744 207.612 321.907 207.612H318.588V210.636H321.907C322.744 210.636 323.213 210.444 323.461 210.232ZM322.643 198.958C322.85 198.754 322.979 198.451 322.979 198.06C322.979 197.641 322.846 197.344 322.647 197.151C322.45 196.959 322.084 196.768 321.422 196.768H318.588V199.32L321.422 199.353C321.424 199.353 321.426 199.353 321.428 199.353C322.074 199.351 322.441 199.157 322.643 198.958ZM317.588 200.308V195.768H321.422C323.141 195.768 323.979 196.782 323.979 198.06C323.979 199.295 323.141 200.353 321.422 200.353L317.588 200.308ZM339.989 219.13V188.275H350.171V197.091H353.476C360.573 197.091 366.788 199.427 366.788 208.11C366.788 216.749 360.573 219.13 353.476 219.13H339.989ZM351.171 196.091V187.275H338.989V220.13H353.476C357.104 220.13 360.674 219.527 363.359 217.684C365.713 216.069 367.278 213.579 367.683 210.023V220.13H379.865V187.275H367.683V206.19C367.278 202.621 365.714 200.13 363.358 198.519C360.671 196.681 357.102 196.091 353.476 196.091H351.171ZM353.388 206.466H351.171V209.755H353.388C354.176 209.755 354.787 209.588 355.171 209.322C355.503 209.091 355.738 208.742 355.738 208.11C355.738 207.478 355.503 207.129 355.171 206.899C354.787 206.632 354.176 206.466 353.388 206.466ZM378.865 188.275V219.13H368.683V188.275H378.865ZM403.09 220.13V209.873C403.09 209.296 403.096 208.705 403.112 208.099L394.419 220.13H384.313V187.275H396.495V197.487C396.495 198.091 396.489 198.71 396.472 199.343L405.165 187.275H415.272V220.13H403.09ZM395.23 202.777C395.309 202.114 395.366 201.463 395.405 200.823C395.477 199.675 395.495 198.563 395.495 197.487V188.275H385.313V219.13H393.908L404.355 204.672C404.275 205.339 404.219 205.988 404.179 206.623C404.108 207.75 404.09 208.83 404.09 209.873V219.13H414.272V188.275H405.677L395.23 202.777ZM408.969 184.758L408.52 185.055C406.138 186.627 403.298 187.468 399.991 187.468C396.684 187.468 393.844 186.627 391.462 185.055L391.013 184.758V176.134L392.534 177.064C394.718 178.398 397.257 178.945 399.991 178.945C402.682 178.945 405.265 178.397 407.447 177.064L408.969 176.134V184.758ZM407.969 177.917C407.643 178.116 407.309 178.299 406.969 178.466C404.827 179.518 402.425 179.945 399.991 179.945C397.519 179.945 395.146 179.518 393.013 178.467C392.673 178.3 392.34 178.117 392.013 177.917V184.22C394.217 185.675 396.861 186.468 399.991 186.468C403.12 186.468 405.765 185.675 407.969 184.22V177.917ZM288.567 202.689C290.903 202.689 292.401 201.807 292.401 199.691C292.401 197.532 290.903 196.65 288.567 196.65H285.349V202.689H288.567ZM321.907 211.636C323.847 211.636 324.86 210.755 324.86 209.124C324.86 207.493 323.847 206.612 321.907 206.612H317.588V211.636H321.907ZM350.171 205.466V210.755H353.388C355.196 210.755 356.738 210.006 356.738 208.11C356.738 206.215 355.196 205.466 353.388 205.466H350.171Z" fill="#3D68FF"/>
<path opacity="0.34" fill-rule="evenodd" clip-rule="evenodd" d="M109.138 132.13H97V99.2752H127.915V132.13H115.777V110.179H109.138V132.13ZM108.138 131.13H98V100.275H126.915V131.13H116.777V109.179H108.138V131.13ZM132.338 99.2752H157.699V109.297H144.52V110.868H156.112V120.361H144.52V122.019H157.964V132.13H132.338V99.2752ZM156.964 123.019V131.13H133.338V100.275H156.699V108.297H143.52V111.868H155.112V119.361H143.52V123.019H156.964ZM161.52 99.2752H176.008C180.016 99.2752 183.724 99.9674 186.451 101.913C189.243 103.904 190.849 107.091 190.849 111.691C190.849 116.271 189.241 119.447 186.45 121.432C183.723 123.371 180.016 124.063 176.008 124.063H173.702V132.13H161.52V99.2752ZM172.702 131.13H162.52V100.275H176.008C183.854 100.275 189.849 103.008 189.849 111.691C189.849 120.331 183.854 123.063 176.008 123.063H172.702V131.13ZM178.125 113.175C178.492 112.908 178.755 112.484 178.755 111.691C178.755 110.869 178.487 110.435 178.121 110.166C177.7 109.857 176.99 109.65 175.92 109.65H173.702V113.689H175.92C176.99 113.689 177.703 113.482 178.125 113.175ZM193.759 99.2752H210.186C213.754 99.2752 216.725 99.8909 218.829 101.335C221 102.825 222.118 105.105 222.118 108.077C222.118 109.79 221.785 111.348 220.949 112.667C220.465 113.43 219.834 114.081 219.055 114.626C220.101 115.195 220.988 115.93 221.682 116.844C222.797 118.311 223.352 120.156 223.352 122.314C223.352 126.178 221.638 128.713 218.996 130.219C216.439 131.675 213.089 132.13 209.79 132.13H193.759V99.2752ZM218.037 115.234C217.622 115.043 217.179 114.876 216.71 114.733C217.176 114.551 217.601 114.348 217.986 114.123C220.22 112.818 221.118 110.784 221.118 108.077C221.118 102.7 217.151 100.275 210.186 100.275H194.759V131.13H209.79C216.269 131.13 222.352 129.322 222.352 122.314C222.352 118.863 220.817 116.512 218.037 115.234ZM210.815 122.232C211.036 122.042 211.214 121.724 211.214 121.124C211.214 120.524 211.036 120.206 210.815 120.016C210.566 119.804 210.097 119.612 209.261 119.612H205.941V122.636H209.261C210.097 122.636 210.566 122.444 210.815 122.232ZM209.996 110.958C210.203 110.754 210.332 110.451 210.332 110.06C210.332 109.641 210.199 109.344 210.001 109.151C209.804 108.959 209.437 108.768 208.776 108.768H205.941V111.32L208.776 111.353C208.778 111.353 208.779 111.353 208.781 111.353C209.427 111.351 209.794 111.157 209.996 110.958ZM204.941 112.308V107.768H208.776C210.495 107.768 211.332 108.782 211.332 110.06C211.332 111.295 210.495 112.353 208.776 112.353L204.941 112.308ZM227.342 131.13V100.275H237.524V109.091H240.83C247.927 109.091 254.141 111.427 254.141 120.11C254.141 128.749 247.927 131.13 240.83 131.13H227.342ZM238.524 108.091V99.2752H226.342V132.13H240.83C244.458 132.13 248.027 131.527 250.713 129.684C253.067 128.069 254.631 125.579 255.037 122.023V132.13H267.219V99.2752H255.037V118.19C254.631 114.621 253.067 112.13 250.711 110.519C248.025 108.681 244.455 108.091 240.83 108.091H238.524ZM240.742 118.466H238.524V121.755H240.742C241.53 121.755 242.141 121.588 242.525 121.322C242.857 121.091 243.092 120.742 243.092 120.11C243.092 119.478 242.857 119.129 242.525 118.899C242.141 118.632 241.53 118.466 240.742 118.466ZM266.219 100.275V131.13H256.037V100.275H266.219ZM290.444 132.13V121.873C290.444 121.296 290.449 120.705 290.466 120.099L281.773 132.13H271.666V99.2752H283.848V109.487C283.848 110.091 283.843 110.71 283.825 111.343L292.518 99.2752H302.626V132.13H290.444ZM282.584 114.777C282.663 114.114 282.719 113.463 282.759 112.823C282.83 111.675 282.848 110.563 282.848 109.487V100.275H272.666V131.13H281.262L291.708 116.672C291.629 117.339 291.572 117.988 291.532 118.623C291.462 119.75 291.444 120.83 291.444 121.873V131.13H301.626V100.275H293.03L282.584 114.777ZM296.322 96.7582L295.873 97.0547C293.491 98.6268 290.651 99.468 287.344 99.468C284.037 99.468 281.197 98.6268 278.815 97.0547L278.366 96.7582V88.1339L279.888 89.0637C282.071 90.3979 284.61 90.9445 287.344 90.9445C290.036 90.9445 292.619 90.3973 294.801 89.0637L296.322 88.1339V96.7582ZM295.322 89.917C294.996 90.1163 294.663 90.2991 294.322 90.4661C292.18 91.5178 289.779 91.9445 287.344 91.9445C284.873 91.9445 282.5 91.5181 280.366 90.4672C280.027 90.2999 279.693 90.1167 279.366 89.917V96.2201C281.57 97.6746 284.215 98.468 287.344 98.468C290.474 98.468 293.119 97.6746 295.322 96.2201V89.917ZM175.92 114.689C178.256 114.689 179.755 113.807 179.755 111.691C179.755 109.532 178.256 108.65 175.92 108.65H172.702V114.689H175.92ZM209.261 123.636C211.2 123.636 212.214 122.755 212.214 121.124C212.214 119.493 211.2 118.612 209.261 118.612H204.941V123.636H209.261ZM237.524 117.466V122.755H240.742C242.549 122.755 244.092 122.006 244.092 120.11C244.092 118.215 242.549 117.466 240.742 117.466H237.524Z" fill="#3D68FF"/>
<path opacity="0.34" fill-rule="evenodd" clip-rule="evenodd" d="M320.138 132.13H308V99.2752H338.915V132.13H326.777V110.179H320.138V132.13ZM319.138 131.13H309V100.275H337.915V131.13H327.777V109.179H319.138V131.13ZM343.338 99.2752H368.699V109.297H355.52V110.868H367.112V120.361H355.52V122.019H368.964V132.13H343.338V99.2752ZM367.964 123.019V131.13H344.338V100.275H367.699V108.297H354.52V111.868H366.112V119.361H354.52V123.019H367.964ZM372.52 99.2752H387.008C391.016 99.2752 394.724 99.9674 397.451 101.913C400.243 103.904 401.849 107.091 401.849 111.691C401.849 116.271 400.241 119.447 397.45 121.432C394.723 123.371 391.016 124.063 387.008 124.063H384.702V132.13H372.52V99.2752ZM383.702 131.13H373.52V100.275H387.008C394.854 100.275 400.849 103.008 400.849 111.691C400.849 120.331 394.854 123.063 387.008 123.063H383.702V131.13ZM389.125 113.175C389.492 112.908 389.755 112.484 389.755 111.691C389.755 110.869 389.487 110.435 389.121 110.166C388.7 109.857 387.99 109.65 386.92 109.65H384.702V113.689H386.92C387.99 113.689 388.703 113.482 389.125 113.175ZM404.759 99.2752H421.186C424.754 99.2752 427.725 99.8909 429.829 101.335C432 102.825 433.118 105.105 433.118 108.077C433.118 109.79 432.785 111.348 431.949 112.667C431.465 113.43 430.834 114.081 430.055 114.626C431.101 115.195 431.988 115.93 432.682 116.844C433.797 118.311 434.352 120.156 434.352 122.314C434.352 126.178 432.638 128.713 429.996 130.219C427.439 131.675 424.089 132.13 420.79 132.13H404.759V99.2752ZM429.037 115.234C428.622 115.043 428.179 114.876 427.71 114.733C428.176 114.551 428.601 114.348 428.986 114.123C431.22 112.818 432.118 110.784 432.118 108.077C432.118 102.7 428.151 100.275 421.186 100.275H405.759V131.13H420.79C427.269 131.13 433.352 129.322 433.352 122.314C433.352 118.863 431.817 116.512 429.037 115.234ZM421.815 122.232C422.036 122.042 422.214 121.724 422.214 121.124C422.214 120.524 422.036 120.206 421.815 120.016C421.566 119.804 421.097 119.612 420.261 119.612H416.941V122.636H420.261C421.097 122.636 421.566 122.444 421.815 122.232ZM420.996 110.958C421.203 110.754 421.332 110.451 421.332 110.06C421.332 109.641 421.199 109.344 421.001 109.151C420.804 108.959 420.437 108.768 419.776 108.768H416.941V111.32L419.776 111.353C419.778 111.353 419.779 111.353 419.781 111.353C420.427 111.351 420.794 111.157 420.996 110.958ZM415.941 112.308V107.768H419.776C421.495 107.768 422.332 108.782 422.332 110.06C422.332 111.295 421.495 112.353 419.776 112.353L415.941 112.308ZM438.342 131.13V100.275H448.524V109.091H451.83C458.927 109.091 465.141 111.427 465.141 120.11C465.141 128.749 458.927 131.13 451.83 131.13H438.342ZM449.524 108.091V99.2752H437.342V132.13H451.83C455.458 132.13 459.027 131.527 461.713 129.684C464.067 128.069 465.631 125.579 466.037 122.023V132.13H478.219V99.2752H466.037V118.19C465.631 114.621 464.067 112.13 461.711 110.519C459.025 108.681 455.455 108.091 451.83 108.091H449.524ZM451.742 118.466H449.524V121.755H451.742C452.53 121.755 453.141 121.588 453.525 121.322C453.857 121.091 454.092 120.742 454.092 120.11C454.092 119.478 453.857 119.129 453.525 118.899C453.141 118.632 452.53 118.466 451.742 118.466ZM477.219 100.275V131.13H467.037V100.275H477.219ZM501.444 132.13V121.873C501.444 121.296 501.449 120.705 501.466 120.099L492.773 132.13H482.666V99.2752H494.848V109.487C494.848 110.091 494.843 110.71 494.825 111.343L503.518 99.2752H513.626V132.13H501.444ZM493.584 114.777C493.663 114.114 493.719 113.463 493.759 112.823C493.83 111.675 493.848 110.563 493.848 109.487V100.275H483.666V131.13H492.262L502.708 116.672C502.629 117.339 502.572 117.988 502.532 118.623C502.462 119.75 502.444 120.83 502.444 121.873V131.13H512.626V100.275H504.03L493.584 114.777ZM507.322 96.7582L506.873 97.0547C504.491 98.6268 501.651 99.468 498.344 99.468C495.037 99.468 492.197 98.6268 489.815 97.0547L489.366 96.7582V88.1339L490.888 89.0637C493.071 90.3979 495.61 90.9445 498.344 90.9445C501.036 90.9445 503.619 90.3973 505.801 89.0637L507.322 88.1339V96.7582ZM506.322 89.917C505.996 90.1163 505.663 90.2991 505.322 90.4661C503.18 91.5178 500.779 91.9445 498.344 91.9445C495.873 91.9445 493.5 91.5181 491.366 90.4672C491.027 90.2999 490.693 90.1167 490.366 89.917V96.2201C492.57 97.6746 495.215 98.468 498.344 98.468C501.474 98.468 504.119 97.6746 506.322 96.2201V89.917ZM386.92 114.689C389.256 114.689 390.755 113.807 390.755 111.691C390.755 109.532 389.256 108.65 386.92 108.65H383.702V114.689H386.92ZM420.261 123.636C422.2 123.636 423.214 122.755 423.214 121.124C423.214 119.493 422.2 118.612 420.261 118.612H415.941V123.636H420.261ZM448.524 117.466V122.755H451.742C453.549 122.755 455.092 122.006 455.092 120.11C455.092 118.215 453.549 117.466 451.742 117.466H448.524Z" fill="#3D68FF"/>
<path opacity="0.34" fill-rule="evenodd" clip-rule="evenodd" d="M109.138 396.13H97V363.275H127.915V396.13H115.777V374.179H109.138V396.13ZM108.138 395.13H98V364.275H126.915V395.13H116.777V373.179H108.138V395.13ZM132.338 363.275H157.699V373.297H144.52V374.868H156.112V384.361H144.52V386.019H157.964V396.13H132.338V363.275ZM156.964 387.019V395.13H133.338V364.275H156.699V372.297H143.52V375.868H155.112V383.361H143.52V387.019H156.964ZM161.52 363.275H176.008C180.016 363.275 183.724 363.967 186.451 365.913C189.243 367.904 190.849 371.091 190.849 375.691C190.849 380.271 189.241 383.447 186.45 385.432C183.723 387.371 180.016 388.063 176.008 388.063H173.702V396.13H161.52V363.275ZM172.702 395.13H162.52V364.275H176.008C183.854 364.275 189.849 367.008 189.849 375.691C189.849 384.331 183.854 387.063 176.008 387.063H172.702V395.13ZM178.125 377.175C178.492 376.908 178.755 376.484 178.755 375.691C178.755 374.869 178.487 374.435 178.121 374.166C177.7 373.857 176.99 373.65 175.92 373.65H173.702V377.689H175.92C176.99 377.689 177.703 377.482 178.125 377.175ZM193.759 363.275H210.186C213.754 363.275 216.725 363.891 218.829 365.335C221 366.825 222.118 369.105 222.118 372.077C222.118 373.79 221.785 375.348 220.949 376.667C220.465 377.43 219.834 378.081 219.055 378.626C220.101 379.195 220.988 379.93 221.682 380.844C222.797 382.311 223.352 384.156 223.352 386.314C223.352 390.178 221.638 392.713 218.996 394.219C216.439 395.675 213.089 396.13 209.79 396.13H193.759V363.275ZM218.037 379.234C217.622 379.043 217.179 378.876 216.71 378.733C217.176 378.551 217.601 378.348 217.986 378.123C220.22 376.818 221.118 374.784 221.118 372.077C221.118 366.7 217.151 364.275 210.186 364.275H194.759V395.13H209.79C216.269 395.13 222.352 393.322 222.352 386.314C222.352 382.863 220.817 380.512 218.037 379.234ZM210.815 386.232C211.036 386.042 211.214 385.724 211.214 385.124C211.214 384.524 211.036 384.206 210.815 384.016C210.566 383.804 210.097 383.612 209.261 383.612H205.941V386.636H209.261C210.097 386.636 210.566 386.444 210.815 386.232ZM209.996 374.958C210.203 374.754 210.332 374.451 210.332 374.06C210.332 373.641 210.199 373.344 210.001 373.151C209.804 372.959 209.437 372.768 208.776 372.768H205.941V375.32L208.776 375.353C208.778 375.353 208.779 375.353 208.781 375.353C209.427 375.351 209.794 375.157 209.996 374.958ZM204.941 376.308V371.768H208.776C210.495 371.768 211.332 372.782 211.332 374.06C211.332 375.295 210.495 376.353 208.776 376.353L204.941 376.308ZM227.342 395.13V364.275H237.524V373.091H240.83C247.927 373.091 254.141 375.427 254.141 384.11C254.141 392.749 247.927 395.13 240.83 395.13H227.342ZM238.524 372.091V363.275H226.342V396.13H240.83C244.458 396.13 248.027 395.527 250.713 393.684C253.067 392.069 254.631 389.579 255.037 386.023V396.13H267.219V363.275H255.037V382.19C254.631 378.621 253.067 376.13 250.711 374.519C248.025 372.681 244.455 372.091 240.83 372.091H238.524ZM240.742 382.466H238.524V385.755H240.742C241.53 385.755 242.141 385.588 242.525 385.322C242.857 385.091 243.092 384.742 243.092 384.11C243.092 383.478 242.857 383.129 242.525 382.899C242.141 382.632 241.53 382.466 240.742 382.466ZM266.219 364.275V395.13H256.037V364.275H266.219ZM290.444 396.13V385.873C290.444 385.296 290.449 384.705 290.466 384.099L281.773 396.13H271.666V363.275H283.848V373.487C283.848 374.091 283.843 374.71 283.825 375.343L292.518 363.275H302.626V396.13H290.444ZM282.584 378.777C282.663 378.114 282.719 377.463 282.759 376.823C282.83 375.675 282.848 374.563 282.848 373.487V364.275H272.666V395.13H281.262L291.708 380.672C291.629 381.339 291.572 381.988 291.532 382.623C291.462 383.75 291.444 384.83 291.444 385.873V395.13H301.626V364.275H293.03L282.584 378.777ZM296.322 360.758L295.873 361.055C293.491 362.627 290.651 363.468 287.344 363.468C284.037 363.468 281.197 362.627 278.815 361.055L278.366 360.758V352.134L279.888 353.064C282.071 354.398 284.61 354.945 287.344 354.945C290.036 354.945 292.619 354.397 294.801 353.064L296.322 352.134V360.758ZM295.322 353.917C294.996 354.116 294.663 354.299 294.322 354.466C292.18 355.518 289.779 355.945 287.344 355.945C284.873 355.945 282.5 355.518 280.366 354.467C280.027 354.3 279.693 354.117 279.366 353.917V360.22C281.57 361.675 284.215 362.468 287.344 362.468C290.474 362.468 293.119 361.675 295.322 360.22V353.917ZM175.92 378.689C178.256 378.689 179.755 377.807 179.755 375.691C179.755 373.532 178.256 372.65 175.92 372.65H172.702V378.689H175.92ZM209.261 387.636C211.2 387.636 212.214 386.755 212.214 385.124C212.214 383.493 211.2 382.612 209.261 382.612H204.941V387.636H209.261ZM237.524 381.466V386.755H240.742C242.549 386.755 244.092 386.006 244.092 384.11C244.092 382.215 242.549 381.466 240.742 381.466H237.524Z" fill="#3D68FF"/>
<path opacity="0.34" fill-rule="evenodd" clip-rule="evenodd" d="M319.784 396.13H307.646V363.275H338.561V396.13H326.424V374.179H319.784V396.13ZM318.784 395.13H308.646V364.275H337.561V395.13H327.424V373.179H318.784V395.13ZM342.984 363.275H368.346V373.297H355.166V374.868H366.759V384.361H355.166V386.019H368.61V396.13H342.984V363.275ZM367.61 387.019V395.13H343.984V364.275H367.346V372.297H354.166V375.868H365.759V383.361H354.166V387.019H367.61ZM372.167 363.275H386.655C390.662 363.275 394.37 363.967 397.098 365.913C399.889 367.904 401.495 371.091 401.495 375.691C401.495 380.271 399.888 383.447 397.097 385.432C394.37 387.371 390.662 388.063 386.655 388.063H384.349V396.13H372.167V363.275ZM383.349 395.13H373.167V364.275H386.655C394.501 364.275 400.495 367.008 400.495 375.691C400.495 384.331 394.501 387.063 386.655 387.063H383.349V395.13ZM388.772 377.175C389.139 376.908 389.401 376.484 389.401 375.691C389.401 374.869 389.133 374.435 388.767 374.166C388.347 373.857 387.637 373.65 386.567 373.65H384.349V377.689H386.567C387.636 377.689 388.349 377.482 388.772 377.175ZM404.406 363.275H420.833C424.401 363.275 427.372 363.891 429.476 365.335C431.646 366.825 432.764 369.105 432.764 372.077C432.764 373.79 432.431 375.348 431.595 376.667C431.112 377.43 430.481 378.081 429.701 378.626C430.747 379.195 431.634 379.93 432.329 380.844C433.444 382.311 433.998 384.156 433.998 386.314C433.998 390.178 432.285 392.713 429.642 394.219C427.085 395.675 423.735 396.13 420.436 396.13H404.406V363.275ZM428.684 379.234C428.269 379.043 427.826 378.876 427.356 378.733C427.823 378.551 428.247 378.348 428.632 378.123C430.866 376.818 431.764 374.784 431.764 372.077C431.764 366.7 427.797 364.275 420.833 364.275H405.406V395.13H420.436C426.916 395.13 432.998 393.322 432.998 386.314C432.998 382.863 431.463 380.512 428.684 379.234ZM421.461 386.232C421.683 386.042 421.86 385.724 421.86 385.124C421.86 384.524 421.683 384.206 421.461 384.016C421.213 383.804 420.744 383.612 419.907 383.612H416.588V386.636H419.907C420.744 386.636 421.213 386.444 421.461 386.232ZM420.643 374.958C420.85 374.754 420.979 374.451 420.979 374.06C420.979 373.641 420.846 373.344 420.647 373.151C420.45 372.959 420.084 372.768 419.422 372.768H416.588V375.32L419.422 375.353C419.424 375.353 419.426 375.353 419.428 375.353C420.074 375.351 420.441 375.157 420.643 374.958ZM415.588 376.308V371.768H419.422C421.141 371.768 421.979 372.782 421.979 374.06C421.979 375.295 421.141 376.353 419.422 376.353L415.588 376.308ZM437.989 395.13V364.275H448.171V373.091H451.476C458.573 373.091 464.788 375.427 464.788 384.11C464.788 392.749 458.573 395.13 451.476 395.13H437.989ZM449.171 372.091V363.275H436.989V396.13H451.476C455.104 396.13 458.674 395.527 461.359 393.684C463.713 392.069 465.278 389.579 465.683 386.023V396.13H477.865V363.275H465.683V382.19C465.278 378.621 463.714 376.13 461.358 374.519C458.671 372.681 455.102 372.091 451.476 372.091H449.171ZM451.388 382.466H449.171V385.755H451.388C452.176 385.755 452.787 385.588 453.171 385.322C453.503 385.091 453.738 384.742 453.738 384.11C453.738 383.478 453.503 383.129 453.171 382.899C452.787 382.632 452.176 382.466 451.388 382.466ZM476.865 364.275V395.13H466.683V364.275H476.865ZM501.09 396.13V385.873C501.09 385.296 501.096 384.705 501.112 384.099L492.419 396.13H482.313V363.275H494.495V373.487C494.495 374.091 494.489 374.71 494.472 375.343L503.165 363.275H513.272V396.13H501.09ZM493.23 378.777C493.309 378.114 493.366 377.463 493.405 376.823C493.477 375.675 493.495 374.563 493.495 373.487V364.275H483.313V395.13H491.908L502.355 380.672C502.275 381.339 502.219 381.988 502.179 382.623C502.108 383.75 502.09 384.83 502.09 385.873V395.13H512.272V364.275H503.677L493.23 378.777ZM506.969 360.758L506.52 361.055C504.138 362.627 501.298 363.468 497.991 363.468C494.684 363.468 491.844 362.627 489.462 361.055L489.013 360.758V352.134L490.534 353.064C492.718 354.398 495.257 354.945 497.991 354.945C500.682 354.945 503.265 354.397 505.447 353.064L506.969 352.134V360.758ZM505.969 353.917C505.643 354.116 505.309 354.299 504.969 354.466C502.827 355.518 500.425 355.945 497.991 355.945C495.519 355.945 493.146 355.518 491.013 354.467C490.673 354.3 490.34 354.117 490.013 353.917V360.22C492.217 361.675 494.861 362.468 497.991 362.468C501.12 362.468 503.765 361.675 505.969 360.22V353.917ZM386.567 378.689C388.903 378.689 390.401 377.807 390.401 375.691C390.401 373.532 388.903 372.65 386.567 372.65H383.349V378.689H386.567ZM419.907 387.636C421.847 387.636 422.86 386.755 422.86 385.124C422.86 383.493 421.847 382.612 419.907 382.612H415.588V387.636H419.907ZM448.171 381.466V386.755H451.388C453.196 386.755 454.738 386.006 454.738 384.11C454.738 382.215 453.196 381.466 451.388 381.466H448.171Z" fill="#3D68FF"/>
<path opacity="0.34" fill-rule="evenodd" clip-rule="evenodd" d="M51.1379 264.13H39V231.275H69.915V264.13H57.7771V242.179H51.1379V264.13ZM50.1379 263.13H40V232.275H68.915V263.13H58.7771V241.179H50.1379V263.13ZM74.3379 231.275H99.6991V241.297H86.5199V242.868H98.1123V252.361H86.5199V254.019H99.9636V264.13H74.3379V231.275ZM98.9636 255.019V263.13H75.3379V232.275H98.6991V240.297H85.5199V243.868H97.1123V251.361H85.5199V255.019H98.9636ZM103.52 231.275H118.008C122.016 231.275 125.724 231.967 128.451 233.913C131.243 235.904 132.849 239.091 132.849 243.691C132.849 248.271 131.241 251.447 128.45 253.432C125.723 255.371 122.016 256.063 118.008 256.063H115.702V264.13H103.52V231.275ZM114.702 263.13H104.52V232.275H118.008C125.854 232.275 131.849 235.008 131.849 243.691C131.849 252.331 125.854 255.063 118.008 255.063H114.702V263.13ZM120.125 245.175C120.492 244.908 120.755 244.484 120.755 243.691C120.755 242.869 120.487 242.435 120.121 242.166C119.7 241.857 118.99 241.65 117.92 241.65H115.702V245.689H117.92C118.99 245.689 119.703 245.482 120.125 245.175ZM135.759 231.275H152.186C155.754 231.275 158.725 231.891 160.829 233.335C163 234.825 164.118 237.105 164.118 240.077C164.118 241.79 163.785 243.348 162.949 244.667C162.465 245.43 161.834 246.081 161.055 246.626C162.101 247.195 162.988 247.93 163.682 248.844C164.797 250.311 165.352 252.156 165.352 254.314C165.352 258.178 163.638 260.713 160.996 262.219C158.439 263.675 155.089 264.13 151.79 264.13H135.759V231.275ZM160.037 247.234C159.622 247.043 159.179 246.876 158.71 246.733C159.176 246.551 159.601 246.348 159.986 246.123C162.22 244.818 163.118 242.784 163.118 240.077C163.118 234.7 159.151 232.275 152.186 232.275H136.759V263.13H151.79C158.269 263.13 164.352 261.322 164.352 254.314C164.352 250.863 162.817 248.512 160.037 247.234ZM152.815 254.232C153.036 254.042 153.214 253.724 153.214 253.124C153.214 252.524 153.036 252.206 152.815 252.016C152.566 251.804 152.097 251.612 151.261 251.612H147.941V254.636H151.261C152.097 254.636 152.566 254.444 152.815 254.232ZM151.996 242.958C152.203 242.754 152.332 242.451 152.332 242.06C152.332 241.641 152.199 241.344 152.001 241.151C151.804 240.959 151.437 240.768 150.776 240.768H147.941V243.32L150.776 243.353C150.778 243.353 150.779 243.353 150.781 243.353C151.427 243.351 151.794 243.157 151.996 242.958ZM146.941 244.308V239.768H150.776C152.495 239.768 153.332 240.782 153.332 242.06C153.332 243.295 152.495 244.353 150.776 244.353L146.941 244.308ZM169.342 263.13V232.275H179.524V241.091H182.83C189.927 241.091 196.141 243.427 196.141 252.11C196.141 260.749 189.927 263.13 182.83 263.13H169.342ZM180.524 240.091V231.275H168.342V264.13H182.83C186.458 264.13 190.027 263.527 192.713 261.684C195.067 260.069 196.631 257.579 197.037 254.023V264.13H209.219V231.275H197.037V250.19C196.631 246.621 195.067 244.13 192.711 242.519C190.025 240.681 186.455 240.091 182.83 240.091H180.524ZM182.742 250.466H180.524V253.755H182.742C183.53 253.755 184.141 253.588 184.525 253.322C184.857 253.091 185.092 252.742 185.092 252.11C185.092 251.478 184.857 251.129 184.525 250.899C184.141 250.632 183.53 250.466 182.742 250.466ZM208.219 232.275V263.13H198.037V232.275H208.219ZM232.444 264.13V253.873C232.444 253.296 232.449 252.705 232.466 252.099L223.773 264.13H213.666V231.275H225.848V241.487C225.848 242.091 225.843 242.71 225.825 243.343L234.518 231.275H244.626V264.13H232.444ZM224.584 246.777C224.663 246.114 224.719 245.463 224.759 244.823C224.83 243.675 224.848 242.563 224.848 241.487V232.275H214.666V263.13H223.262L233.708 248.672C233.629 249.339 233.572 249.988 233.532 250.623C233.462 251.75 233.444 252.83 233.444 253.873V263.13H243.626V232.275H235.03L224.584 246.777ZM238.322 228.758L237.873 229.055C235.491 230.627 232.651 231.468 229.344 231.468C226.037 231.468 223.197 230.627 220.815 229.055L220.366 228.758V220.134L221.888 221.064C224.071 222.398 226.61 222.945 229.344 222.945C232.036 222.945 234.619 222.397 236.801 221.064L238.322 220.134V228.758ZM237.322 221.917C236.996 222.116 236.663 222.299 236.322 222.466C234.18 223.518 231.779 223.945 229.344 223.945C226.873 223.945 224.5 223.518 222.366 222.467C222.027 222.3 221.693 222.117 221.366 221.917V228.22C223.57 229.675 226.215 230.468 229.344 230.468C232.474 230.468 235.119 229.675 237.322 228.22V221.917ZM117.92 246.689C120.256 246.689 121.755 245.807 121.755 243.691C121.755 241.532 120.256 240.65 117.92 240.65H114.702V246.689H117.92ZM151.261 255.636C153.2 255.636 154.214 254.755 154.214 253.124C154.214 251.493 153.2 250.612 151.261 250.612H146.941V255.636H151.261ZM179.524 249.466V254.755H182.742C184.549 254.755 186.092 254.006 186.092 252.11C186.092 250.215 184.549 249.466 182.742 249.466H179.524Z" fill="#3D68FF"/>
<path opacity="0.34" fill-rule="evenodd" clip-rule="evenodd" d="M260.784 264.13H248.646V231.275H279.561V264.13H267.424V242.179H260.784V264.13ZM259.784 263.13H249.646V232.275H278.561V263.13H268.424V241.179H259.784V263.13ZM283.984 231.275H309.346V241.297H296.166V242.868H307.759V252.361H296.166V254.019H309.61V264.13H283.984V231.275ZM308.61 255.019V263.13H284.984V232.275H308.346V240.297H295.166V243.868H306.759V251.361H295.166V255.019H308.61ZM313.167 231.275H327.655C331.662 231.275 335.37 231.967 338.098 233.913C340.889 235.904 342.495 239.091 342.495 243.691C342.495 248.271 340.888 251.447 338.097 253.432C335.37 255.371 331.662 256.063 327.655 256.063H325.349V264.13H313.167V231.275ZM324.349 263.13H314.167V232.275H327.655C335.501 232.275 341.495 235.008 341.495 243.691C341.495 252.331 335.501 255.063 327.655 255.063H324.349V263.13ZM329.772 245.175C330.139 244.908 330.401 244.484 330.401 243.691C330.401 242.869 330.133 242.435 329.767 242.166C329.347 241.857 328.637 241.65 327.567 241.65H325.349V245.689H327.567C328.636 245.689 329.349 245.482 329.772 245.175ZM345.406 231.275H361.833C365.401 231.275 368.372 231.891 370.476 233.335C372.646 234.825 373.764 237.105 373.764 240.077C373.764 241.79 373.431 243.348 372.595 244.667C372.112 245.43 371.481 246.081 370.701 246.626C371.747 247.195 372.634 247.93 373.329 248.844C374.444 250.311 374.998 252.156 374.998 254.314C374.998 258.178 373.285 260.713 370.642 262.219C368.085 263.675 364.735 264.13 361.436 264.13H345.406V231.275ZM369.684 247.234C369.269 247.043 368.826 246.876 368.356 246.733C368.823 246.551 369.247 246.348 369.632 246.123C371.866 244.818 372.764 242.784 372.764 240.077C372.764 234.7 368.797 232.275 361.833 232.275H346.406V263.13H361.436C367.916 263.13 373.998 261.322 373.998 254.314C373.998 250.863 372.463 248.512 369.684 247.234ZM362.461 254.232C362.683 254.042 362.86 253.724 362.86 253.124C362.86 252.524 362.683 252.206 362.461 252.016C362.213 251.804 361.744 251.612 360.907 251.612H357.588V254.636H360.907C361.744 254.636 362.213 254.444 362.461 254.232ZM361.643 242.958C361.85 242.754 361.979 242.451 361.979 242.06C361.979 241.641 361.846 241.344 361.647 241.151C361.45 240.959 361.084 240.768 360.422 240.768H357.588V243.32L360.422 243.353C360.424 243.353 360.426 243.353 360.428 243.353C361.074 243.351 361.441 243.157 361.643 242.958ZM356.588 244.308V239.768H360.422C362.141 239.768 362.979 240.782 362.979 242.06C362.979 243.295 362.141 244.353 360.422 244.353L356.588 244.308ZM378.989 263.13V232.275H389.171V241.091H392.476C399.573 241.091 405.788 243.427 405.788 252.11C405.788 260.749 399.573 263.13 392.476 263.13H378.989ZM390.171 240.091V231.275H377.989V264.13H392.476C396.104 264.13 399.674 263.527 402.359 261.684C404.713 260.069 406.278 257.579 406.683 254.023V264.13H418.865V231.275H406.683V250.19C406.278 246.621 404.714 244.13 402.358 242.519C399.671 240.681 396.102 240.091 392.476 240.091H390.171ZM392.388 250.466H390.171V253.755H392.388C393.176 253.755 393.787 253.588 394.171 253.322C394.503 253.091 394.738 252.742 394.738 252.11C394.738 251.478 394.503 251.129 394.171 250.899C393.787 250.632 393.176 250.466 392.388 250.466ZM417.865 232.275V263.13H407.683V232.275H417.865ZM442.09 264.13V253.873C442.09 253.296 442.096 252.705 442.112 252.099L433.419 264.13H423.313V231.275H435.495V241.487C435.495 242.091 435.489 242.71 435.472 243.343L444.165 231.275H454.272V264.13H442.09ZM434.23 246.777C434.309 246.114 434.366 245.463 434.405 244.823C434.477 243.675 434.495 242.563 434.495 241.487V232.275H424.313V263.13H432.908L443.355 248.672C443.275 249.339 443.219 249.988 443.179 250.623C443.108 251.75 443.09 252.83 443.09 253.873V263.13H453.272V232.275H444.677L434.23 246.777ZM447.969 228.758L447.52 229.055C445.138 230.627 442.298 231.468 438.991 231.468C435.684 231.468 432.844 230.627 430.462 229.055L430.013 228.758V220.134L431.534 221.064C433.718 222.398 436.257 222.945 438.991 222.945C441.682 222.945 444.265 222.397 446.447 221.064L447.969 220.134V228.758ZM446.969 221.917C446.643 222.116 446.309 222.299 445.969 222.466C443.827 223.518 441.425 223.945 438.991 223.945C436.519 223.945 434.146 223.518 432.013 222.467C431.673 222.3 431.34 222.117 431.013 221.917V228.22C433.217 229.675 435.861 230.468 438.991 230.468C442.12 230.468 444.765 229.675 446.969 228.22V221.917ZM327.567 246.689C329.903 246.689 331.401 245.807 331.401 243.691C331.401 241.532 329.903 240.65 327.567 240.65H324.349V246.689H327.567ZM360.907 255.636C362.847 255.636 363.86 254.755 363.86 253.124C363.86 251.493 362.847 250.612 360.907 250.612H356.588V255.636H360.907ZM389.171 249.466V254.755H392.388C394.196 254.755 395.738 254.006 395.738 252.11C395.738 250.215 394.196 249.466 392.388 249.466H389.171Z" fill="#3D68FF"/>
</svg>
