<svg width="364" height="364" viewBox="0 0 364 364" fill="none" xmlns="http://www.w3.org/2000/svg">
<path d="M301.545 183.866C301.758 191.537 299.723 199.087 290.237 199.272C280.804 199.453 278.353 191.998 278.145 184.325L277.611 164.974L314.1 164.258L314.964 195.456L305.323 195.641L304.822 177.477L301.384 177.543L301.545 183.866ZM286.848 182.515C286.908 184.77 287.53 186.399 289.876 186.347C292.219 186.303 292.8 184.651 292.741 182.396L292.61 177.714L286.723 177.83L286.848 182.515Z" stroke="white" stroke-width="1.2" stroke-miterlimit="10"/>
<path d="M278.105 202.279L311.96 216.26L298.2 250.478L264.343 236.492L269.167 224.494L293.253 234.442L297.364 224.22L273.278 214.272L278.105 202.279Z" stroke="white" stroke-width="1.2" stroke-miterlimit="10"/>
<path d="M273.684 280.933C270.837 283.797 267.473 286.13 263.985 287.555L256.359 279.886C258.904 279.342 262.209 277.578 264.657 275.115C268.45 271.301 270.274 265.902 265.645 261.247C261.572 257.155 256.314 259.018 252.675 262.675C249.828 265.539 247.847 268.87 247.608 271.489L239.797 263.639C241.21 260.137 243.42 256.873 246.344 253.931C254.172 246.066 265.575 242.348 275.016 251.833C284.903 261.692 281.274 273.302 273.684 280.933Z" stroke="white" stroke-width="1.2" stroke-miterlimit="10"/>
<path d="M210.668 312.648C202.046 314.658 196.458 312.997 194.972 306.767C194.093 303.093 195.005 300.133 198.592 297.788C193.813 297.552 190.605 295.229 189.509 290.638C187.573 282.523 194.605 278.676 202.629 276.806L221.243 272.467L229.775 308.198L210.668 312.648ZM206.747 291.147L212.097 289.902L210.706 284.083L205.356 285.328C202.955 285.884 201.944 287.202 202.394 289.087C202.848 290.978 204.346 291.703 206.747 291.147ZM210.347 303.566L215.099 302.461L213.841 297.203L209.081 298.258C206.951 298.754 206.207 300.218 206.547 301.654C206.903 303.128 208.216 304.063 210.347 303.566Z" fill="white"/>
<path d="M161.31 313.425C151.439 311.756 144.409 307.28 146.034 297.102C147.649 286.977 155.698 285.045 165.569 286.715L169.729 287.418L171.237 277.965L184.048 280.131L178.277 316.297L161.31 313.425ZM162.986 303.629L167.034 304.315L168.16 297.235L164.112 296.549C161.171 296.053 159.126 296.768 158.725 299.248C158.328 301.781 160.05 303.13 162.986 303.629Z" fill="white"/>
<path d="M104.095 289.54L108.811 281.306L123.382 289.811L125.481 286.146L112.667 278.662L117.072 270.97L129.891 278.451L132.04 274.695L117.181 266.02L121.947 257.696L148.066 272.941L129.926 304.616L104.095 289.54Z" fill="white"/>
<path d="M62.4956 240.324L92.2514 219.327L99.5712 229.736L85.9702 239.336L97.2774 239.32L101.214 244.916L97.347 255.608L110.994 245.981L118.314 256.39L88.5577 277.387L81.8885 267.905L88.5493 249.706L69.1657 249.82L62.4956 240.324Z" fill="white"/>
<path d="M92.1024 217.672L77.7929 209.702C76.5355 214.355 73.6343 217.655 68.4352 218.456C58.8576 219.928 54.3208 212.34 52.949 203.803L50.0377 185.674L86.0713 180.135L88.1292 192.965L77.4749 194.606L77.8277 196.781L89.7742 203.175L92.1024 217.672ZM69.3049 200.55L68.5718 195.976L61.7754 197.021L62.5086 201.595C62.9736 204.493 64.5968 205.729 66.6043 205.42C68.6199 205.113 69.77 203.448 69.3049 200.55Z" fill="white"/>
<path d="M88.3746 160.174L55.0462 144.93L70.0683 111.265L103.397 126.509L98.1273 138.311L74.414 127.469L69.9227 137.527L93.636 148.369L88.3746 160.174Z" fill="white"/>
<path d="M103.237 75.7641L109.772 82.7326L97.5996 94.2433L100.512 97.3467L111.223 87.221L117.325 93.7334L106.613 103.859L109.596 107.038L122.015 95.296L128.624 102.345L106.798 122.98L81.6708 96.1668L103.237 75.7641Z" fill="white"/>
<path d="M135.26 59.2016C144.559 55.6013 152.847 55.8819 156.612 65.5189C160.355 75.1068 154.434 80.89 145.135 84.4903L141.217 86.0052L144.714 94.9541L132.646 99.6253L119.27 65.3826L135.26 59.2016ZM138.789 68.536L134.971 70.0135L137.59 76.7134L141.403 75.2389C144.172 74.1679 145.565 72.5001 144.649 70.1498C143.715 67.7554 141.558 67.4651 138.789 68.536Z" fill="white"/>
<path d="M186.855 50.6988C195.725 50.8353 200.76 53.7956 200.714 60.1833C200.686 63.9559 199.097 66.6008 195.043 68.0092C199.634 69.389 202.204 72.4161 202.17 77.1312C202.111 85.4596 194.348 87.4875 186.096 87.3641L166.95 87.0665L167.206 50.3895L186.855 50.6988ZM184.996 59.5792L180.113 59.5056L180.078 64.9001L184.964 65.0267C187.155 65.0577 188.232 63.8189 188.241 62.3535C188.247 60.8352 187.186 59.6102 184.996 59.5792ZM185.525 72.4763L180.024 72.3896L179.983 78.363L185.484 78.4497C187.957 78.4887 189.251 77.4608 189.264 75.5201C189.281 73.5845 187.993 72.5183 185.525 72.4763Z" fill="white"/>
<path d="M237.327 104.335L254.738 72.245L266.136 78.5584L248.725 110.649L237.327 104.335ZM205.203 86.545L222.615 54.4545L234.012 60.7679L229.042 69.9372L232.744 71.9878C240.688 76.3878 246.332 82.6712 241.429 91.6986C236.555 100.682 228.253 99.3062 220.308 94.9061L205.203 86.545ZM221.326 84.1461L224.93 86.1439C226.955 87.2643 229.102 87.4437 230.174 85.4675C231.241 83.4942 229.94 81.7573 227.918 80.6421L224.317 78.6494L221.326 84.1461Z" fill="white"/>
<path d="M248.808 111.183L271.954 111.742L279.196 91.116L287.798 103.664L283.368 113.851L294.421 113.323L303.023 125.871L281.205 125.224L273.403 147.057L264.801 134.51L269.567 123.34L257.413 123.736L248.808 111.183Z" fill="white"/>
</svg>
