<svg width="29" height="29" viewBox="0 0 29 29" fill="none" xmlns="http://www.w3.org/2000/svg">
<path d="M25.9156 0.424316H3.46702C1.7888 0.424316 0.424316 1.78948 0.424316 3.46702V19.6949C0.424316 21.3731 1.7888 22.7376 3.46702 22.7376C5.59623 22.7376 5.88225 22.7376 5.88225 22.7376H6.50972V27.8088C6.50972 28.7135 7.60645 29.1605 8.24068 28.5262C11.0724 25.6938 9.08385 27.6831 13.7318 23.0351C13.9225 22.8444 14.1794 22.7376 14.4492 22.7376H25.9155C27.5931 22.7376 28.9582 21.3731 28.9582 19.6949C28.9582 10.2246 28.9582 12.9603 28.9582 3.46702C28.9583 1.78948 27.5931 0.424316 25.9156 0.424316ZM5.49555 6.50972H19.8302C20.3907 6.50972 20.8444 6.96342 20.8444 7.52395C20.8444 8.08449 20.3907 8.53819 19.8302 8.53819H5.49555C4.93502 8.53819 4.48132 8.08449 4.48132 7.52395C4.48132 6.96342 4.93502 6.50972 5.49555 6.50972ZM15.7732 16.6522H5.49555C4.93502 16.6522 4.48132 16.1985 4.48132 15.638C4.48132 15.0774 4.93502 14.6237 5.49555 14.6237H15.7732C16.3337 14.6237 16.7874 15.0774 16.7874 15.638C16.7874 16.1985 16.3337 16.6522 15.7732 16.6522ZM23.8871 12.5952H5.49555C4.93502 12.5952 4.48132 12.1415 4.48132 11.581C4.48132 11.0204 4.93502 10.5667 5.49555 10.5667H23.8871C24.4477 10.5667 24.9014 11.0204 24.9014 11.581C24.9014 12.1415 24.4477 12.5952 23.8871 12.5952Z" fill="white"/>
</svg>
