<svg width="40" height="40" viewBox="0 0 40 40" fill="none" xmlns="http://www.w3.org/2000/svg">
<path d="M35 9.99999H29.7167L26.6667 6.66666H16.6667V9.99999H25.2L28.25 13.3333H35V33.3333H8.33333V18.3333H5V33.3333C5 35.1667 6.5 36.6667 8.33333 36.6667H35C36.8333 36.6667 38.3333 35.1667 38.3333 33.3333V13.3333C38.3333 11.5 36.8333 9.99999 35 9.99999ZM13.3333 23.3333C13.3333 27.9333 17.0667 31.6667 21.6667 31.6667C26.2667 31.6667 30 27.9333 30 23.3333C30 18.7333 26.2667 15 21.6667 15C17.0667 15 13.3333 18.7333 13.3333 23.3333ZM21.6667 18.3333C24.4167 18.3333 26.6667 20.5833 26.6667 23.3333C26.6667 26.0833 24.4167 28.3333 21.6667 28.3333C18.9167 28.3333 16.6667 26.0833 16.6667 23.3333C16.6667 20.5833 18.9167 18.3333 21.6667 18.3333ZM8.33333 9.99999H13.3333V6.66666H8.33333V1.66666H5V6.66666H0V9.99999H5V15H8.33333V9.99999Z" fill="black"/>
</svg>
