<svg width="31" height="29" viewBox="0 0 31 29" fill="none" xmlns="http://www.w3.org/2000/svg">
<path d="M13.4819 1.60716C14.4806 0.241268 16.5194 0.241269 17.5181 1.60716L20.9044 6.23852C21.3364 6.82933 21.9427 7.26985 22.6381 7.49812L28.0893 9.28757C29.6969 9.81531 30.3269 11.7543 29.3365 13.1262L25.9782 17.778C25.5499 18.3714 25.3183 19.0842 25.316 19.816L25.2987 25.5533C25.2935 27.2454 23.6442 28.4437 22.0333 27.9257L16.5715 26.1693C15.8747 25.9453 15.1253 25.9453 14.4285 26.1693L8.96666 27.9257C7.35583 28.4437 5.70646 27.2454 5.70133 25.5533L5.68396 19.816C5.68174 19.0842 5.45015 18.3714 5.02175 17.778L1.6635 13.1262C0.67308 11.7543 1.30309 9.81531 2.91075 9.28757L8.36188 7.49812C9.05725 7.26984 9.66358 6.82933 10.0956 6.23852L13.4819 1.60716Z" stroke="#3D68FF"/>
</svg>
