<svg width="22" height="22" viewBox="0 0 22 22" fill="none" xmlns="http://www.w3.org/2000/svg">
<path d="M20.2657 20.4526C19.7017 16.6399 18.3407 12.8691 15.3483 11.0466C14.1131 12.0208 12.5983 12.5475 10.9996 12.5475C9.40084 12.5475 7.886 12.0208 6.65084 11.0466C3.66312 12.8691 2.30211 16.6399 1.73346 20.4526C1.61228 21.2682 2.2555 22 3.0805 22H18.9186C19.7436 22 20.3869 21.2682 20.2657 20.4526Z" fill="white"/>
<path d="M11 0C7.96568 0 5.5 2.46102 5.5 5.5C5.5 8.53898 7.96102 11 11 11C14.039 11 16.5 8.53898 16.5 5.5C16.5 2.46102 14.0343 0 11 0ZM11 3.70551C10.0119 3.70551 9.21017 4.5072 9.21017 5.49534C9.21017 5.94746 8.84195 6.31568 8.38983 6.31568C7.93771 6.31568 7.56949 5.94746 7.56949 5.49534C7.56949 3.60297 9.10763 2.06483 11 2.06483C11.4521 2.06483 11.8203 2.43305 11.8203 2.88517C11.8203 3.33729 11.4521 3.70551 11 3.70551Z" fill="white"/>
</svg>
